<?xml version="1.0" encoding="UTF-8"?>
<svg width="427px" height="461px" viewBox="0 0 427 461" version="1.1" xmlns="http://www.w3.org/2000/svg" xmlns:xlink="http://www.w3.org/1999/xlink">
    <!-- Generator: Sketch 61.2 (89653) - https://sketch.com -->
    <title>5229792</title>
    <desc>Created with Sketch.</desc>
    <g id="5229792" stroke="none" stroke-width="1" fill="none" fill-rule="evenodd">
        <polygon id="Fill-39" fill="#253C40" points="230.522 422.195 295.542 422.195 295.542 177.022 230.522 177.022"></polygon>
        <polygon id="Fill-40" fill="#334F55" points="295.542 422.195 415.204 422.195 415.204 177.022 295.542 177.022"></polygon>
        <polygon id="Fill-41" fill="#253C40" points="304.515 414.232 407.727 414.232 407.727 390.396 304.515 390.396"></polygon>
        <polygon id="Fill-42" fill="#334F55" points="308.859 396.344 367.609 396.344 367.609 394.332 308.859 394.332"></polygon>
        <polygon id="Fill-43" fill="#334F55" points="308.859 399.832 367.609 399.832 367.609 397.821 308.859 397.821"></polygon>
        <polygon id="Fill-44" fill="#334F55" points="308.859 403.32 367.609 403.32 367.609 401.308 308.859 401.308"></polygon>
        <polygon id="Fill-45" fill="#334F55" points="308.859 406.807 367.609 406.807 367.609 404.795 308.859 404.795"></polygon>
        <polygon id="Fill-46" fill="#334F55" points="308.859 410.294 367.609 410.294 367.609 408.283 308.859 408.283"></polygon>
        <path d="M378.319,396.328 C378.319,397.43 377.426,398.324 376.324,398.324 C375.222,398.324 374.329,397.43 374.329,396.328 C374.329,395.226 375.222,394.332 376.324,394.332 C377.426,394.332 378.319,395.226 378.319,396.328" id="Fill-47" fill="#F5BB3D"></path>
        <path d="M384.897,396.328 C384.897,397.43 384.004,398.324 382.901,398.324 C381.8,398.324 380.906,397.43 380.906,396.328 C380.906,395.226 381.8,394.332 382.901,394.332 C384.004,394.332 384.897,395.226 384.897,396.328" id="Fill-48" fill="#F5BB3D"></path>
        <path d="M391.474,396.328 C391.474,397.43 390.581,398.324 389.479,398.324 C388.377,398.324 387.483,397.43 387.483,396.328 C387.483,395.226 388.377,394.332 389.479,394.332 C390.581,394.332 391.474,395.226 391.474,396.328" id="Fill-49" fill="#F5BB3D"></path>
        <path d="M398.052,396.328 C398.052,397.43 397.158,398.324 396.057,398.324 C394.954,398.324 394.062,397.43 394.062,396.328 C394.062,395.226 394.954,394.332 396.057,394.332 C397.158,394.332 398.052,395.226 398.052,396.328" id="Fill-50" fill="#F5BB3D"></path>
        <path d="M404.629,396.328 C404.629,397.43 403.735,398.324 402.634,398.324 C401.532,398.324 400.639,397.43 400.639,396.328 C400.639,395.226 401.532,394.332 402.634,394.332 C403.735,394.332 404.629,395.226 404.629,396.328" id="Fill-51" fill="#F5BB3D"></path>
        <path d="M378.319,402.314 C378.319,403.415 377.426,404.309 376.324,404.309 C375.222,404.309 374.329,403.415 374.329,402.314 C374.329,401.211 375.222,400.319 376.324,400.319 C377.426,400.319 378.319,401.211 378.319,402.314" id="Fill-52" fill="#F5BB3D"></path>
        <path d="M384.897,402.314 C384.897,403.415 384.004,404.309 382.901,404.309 C381.8,404.309 380.906,403.415 380.906,402.314 C380.906,401.211 381.8,400.319 382.901,400.319 C384.004,400.319 384.897,401.211 384.897,402.314" id="Fill-53" fill="#F5BB3D"></path>
        <path d="M391.474,402.314 C391.474,403.415 390.581,404.309 389.479,404.309 C388.377,404.309 387.483,403.415 387.483,402.314 C387.483,401.211 388.377,400.319 389.479,400.319 C390.581,400.319 391.474,401.211 391.474,402.314" id="Fill-54" fill="#F5BB3D"></path>
        <path d="M398.052,402.314 C398.052,403.415 397.158,404.309 396.057,404.309 C394.954,404.309 394.062,403.415 394.062,402.314 C394.062,401.211 394.954,400.319 396.057,400.319 C397.158,400.319 398.052,401.211 398.052,402.314" id="Fill-55" fill="#F5BB3D"></path>
        <path d="M404.629,402.314 C404.629,403.415 403.735,404.309 402.634,404.309 C401.532,404.309 400.639,403.415 400.639,402.314 C400.639,401.211 401.532,400.319 402.634,400.319 C403.735,400.319 404.629,401.211 404.629,402.314" id="Fill-56" fill="#F5BB3D"></path>
        <path d="M378.319,408.299 C378.319,409.401 377.426,410.294 376.324,410.294 C375.222,410.294 374.329,409.401 374.329,408.299 C374.329,407.198 375.222,406.304 376.324,406.304 C377.426,406.304 378.319,407.198 378.319,408.299" id="Fill-57" fill="#F5BB3D"></path>
        <path d="M384.897,408.299 C384.897,409.401 384.004,410.294 382.901,410.294 C381.8,410.294 380.906,409.401 380.906,408.299 C380.906,407.198 381.8,406.304 382.901,406.304 C384.004,406.304 384.897,407.198 384.897,408.299" id="Fill-58" fill="#F5BB3D"></path>
        <path d="M391.474,408.299 C391.474,409.401 390.581,410.294 389.479,410.294 C388.377,410.294 387.483,409.401 387.483,408.299 C387.483,407.198 388.377,406.304 389.479,406.304 C390.581,406.304 391.474,407.198 391.474,408.299" id="Fill-59" fill="#F5BB3D"></path>
        <path d="M398.052,408.299 C398.052,409.401 397.158,410.294 396.057,410.294 C394.954,410.294 394.062,409.401 394.062,408.299 C394.062,407.198 394.954,406.304 396.057,406.304 C397.158,406.304 398.052,407.198 398.052,408.299" id="Fill-60" fill="#F5BB3D"></path>
        <path d="M404.629,408.299 C404.629,409.401 403.735,410.294 402.634,410.294 C401.532,410.294 400.639,409.401 400.639,408.299 C400.639,407.198 401.532,406.304 402.634,406.304 C403.735,406.304 404.629,407.198 404.629,408.299" id="Fill-61" fill="#F5BB3D"></path>
        <polygon id="Fill-62" fill="#132529" points="370.544 410.294 371.693 410.294 371.693 394.332 370.544 394.332"></polygon>
        <polygon id="Fill-63" fill="#253C40" points="304.515 385.503 407.727 385.503 407.727 361.668 304.515 361.668"></polygon>
        <polygon id="Fill-64" fill="#334F55" points="308.859 367.617 367.609 367.617 367.609 365.605 308.859 365.605"></polygon>
        <polygon id="Fill-65" fill="#334F55" points="308.859 371.104 367.609 371.104 367.609 369.092 308.859 369.092"></polygon>
        <polygon id="Fill-66" fill="#334F55" points="308.859 374.592 367.609 374.592 367.609 372.58 308.859 372.58"></polygon>
        <polygon id="Fill-67" fill="#334F55" points="308.859 378.08 367.609 378.08 367.609 376.068 308.859 376.068"></polygon>
        <polygon id="Fill-68" fill="#334F55" points="308.859 381.567 367.609 381.567 367.609 379.555 308.859 379.555"></polygon>
        <path d="M378.319,367.6 C378.319,368.703 377.426,369.595 376.324,369.595 C375.222,369.595 374.329,368.703 374.329,367.6 C374.329,366.498 375.222,365.605 376.324,365.605 C377.426,365.605 378.319,366.498 378.319,367.6" id="Fill-69" fill="#F5BB3D"></path>
        <path d="M384.897,367.6 C384.897,368.703 384.004,369.595 382.901,369.595 C381.8,369.595 380.906,368.703 380.906,367.6 C380.906,366.498 381.8,365.605 382.901,365.605 C384.004,365.605 384.897,366.498 384.897,367.6" id="Fill-70" fill="#F5BB3D"></path>
        <path d="M391.474,367.6 C391.474,368.703 390.581,369.595 389.479,369.595 C388.377,369.595 387.483,368.703 387.483,367.6 C387.483,366.498 388.377,365.605 389.479,365.605 C390.581,365.605 391.474,366.498 391.474,367.6" id="Fill-71" fill="#F5BB3D"></path>
        <path d="M398.052,367.6 C398.052,368.703 397.158,369.595 396.057,369.595 C394.954,369.595 394.062,368.703 394.062,367.6 C394.062,366.498 394.954,365.605 396.057,365.605 C397.158,365.605 398.052,366.498 398.052,367.6" id="Fill-72" fill="#F5BB3D"></path>
        <path d="M404.629,367.6 C404.629,368.703 403.735,369.595 402.634,369.595 C401.532,369.595 400.639,368.703 400.639,367.6 C400.639,366.498 401.532,365.605 402.634,365.605 C403.735,365.605 404.629,366.498 404.629,367.6" id="Fill-73" fill="#F5BB3D"></path>
        <path d="M378.319,373.586 C378.319,374.688 377.426,375.581 376.324,375.581 C375.222,375.581 374.329,374.688 374.329,373.586 C374.329,372.484 375.222,371.59 376.324,371.59 C377.426,371.59 378.319,372.484 378.319,373.586" id="Fill-74" fill="#F5BB3D"></path>
        <path d="M384.897,373.586 C384.897,374.688 384.004,375.581 382.901,375.581 C381.8,375.581 380.906,374.688 380.906,373.586 C380.906,372.484 381.8,371.59 382.901,371.59 C384.004,371.59 384.897,372.484 384.897,373.586" id="Fill-75" fill="#F5BB3D"></path>
        <path d="M391.474,373.586 C391.474,374.688 390.581,375.581 389.479,375.581 C388.377,375.581 387.483,374.688 387.483,373.586 C387.483,372.484 388.377,371.59 389.479,371.59 C390.581,371.59 391.474,372.484 391.474,373.586" id="Fill-76" fill="#F5BB3D"></path>
        <path d="M398.052,373.586 C398.052,374.688 397.158,375.581 396.057,375.581 C394.954,375.581 394.062,374.688 394.062,373.586 C394.062,372.484 394.954,371.59 396.057,371.59 C397.158,371.59 398.052,372.484 398.052,373.586" id="Fill-77" fill="#F5BB3D"></path>
        <path d="M404.629,373.586 C404.629,374.688 403.735,375.581 402.634,375.581 C401.532,375.581 400.639,374.688 400.639,373.586 C400.639,372.484 401.532,371.59 402.634,371.59 C403.735,371.59 404.629,372.484 404.629,373.586" id="Fill-78" fill="#F5BB3D"></path>
        <path d="M378.319,379.572 C378.319,380.673 377.426,381.567 376.324,381.567 C375.222,381.567 374.329,380.673 374.329,379.572 C374.329,378.469 375.222,377.577 376.324,377.577 C377.426,377.577 378.319,378.469 378.319,379.572" id="Fill-79" fill="#F5BB3D"></path>
        <path d="M384.897,379.572 C384.897,380.673 384.004,381.567 382.901,381.567 C381.8,381.567 380.906,380.673 380.906,379.572 C380.906,378.469 381.8,377.577 382.901,377.577 C384.004,377.577 384.897,378.469 384.897,379.572" id="Fill-80" fill="#F5BB3D"></path>
        <path d="M391.474,379.572 C391.474,380.673 390.581,381.567 389.479,381.567 C388.377,381.567 387.483,380.673 387.483,379.572 C387.483,378.469 388.377,377.577 389.479,377.577 C390.581,377.577 391.474,378.469 391.474,379.572" id="Fill-81" fill="#F5BB3D"></path>
        <path d="M398.052,379.572 C398.052,380.673 397.158,381.567 396.057,381.567 C394.954,381.567 394.062,380.673 394.062,379.572 C394.062,378.469 394.954,377.577 396.057,377.577 C397.158,377.577 398.052,378.469 398.052,379.572" id="Fill-82" fill="#F5BB3D"></path>
        <path d="M404.629,379.572 C404.629,380.673 403.735,381.567 402.634,381.567 C401.532,381.567 400.639,380.673 400.639,379.572 C400.639,378.469 401.532,377.577 402.634,377.577 C403.735,377.577 404.629,378.469 404.629,379.572" id="Fill-83" fill="#F5BB3D"></path>
        <polygon id="Fill-84" fill="#132529" points="370.544 381.567 371.693 381.567 371.693 365.605 370.544 365.605"></polygon>
        <polygon id="Fill-85" fill="#253C40" points="304.515 356.776 407.727 356.776 407.727 332.94 304.515 332.94"></polygon>
        <polygon id="Fill-86" fill="#334F55" points="308.859 338.889 367.609 338.889 367.609 336.877 308.859 336.877"></polygon>
        <polygon id="Fill-87" fill="#334F55" points="308.859 342.376 367.609 342.376 367.609 340.365 308.859 340.365"></polygon>
        <polygon id="Fill-88" fill="#334F55" points="308.859 345.864 367.609 345.864 367.609 343.852 308.859 343.852"></polygon>
        <polygon id="Fill-89" fill="#334F55" points="308.859 349.351 367.609 349.351 367.609 347.339 308.859 347.339"></polygon>
        <polygon id="Fill-90" fill="#334F55" points="308.859 352.839 367.609 352.839 367.609 350.828 308.859 350.828"></polygon>
        <path d="M378.319,338.873 C378.319,339.974 377.426,340.868 376.324,340.868 C375.222,340.868 374.329,339.974 374.329,338.873 C374.329,337.771 375.222,336.877 376.324,336.877 C377.426,336.877 378.319,337.771 378.319,338.873" id="Fill-91" fill="#F5BB3D"></path>
        <path d="M384.897,338.873 C384.897,339.974 384.004,340.868 382.901,340.868 C381.8,340.868 380.906,339.974 380.906,338.873 C380.906,337.771 381.8,336.877 382.901,336.877 C384.004,336.877 384.897,337.771 384.897,338.873" id="Fill-92" fill="#F5BB3D"></path>
        <path d="M391.474,338.873 C391.474,339.974 390.581,340.868 389.479,340.868 C388.377,340.868 387.483,339.974 387.483,338.873 C387.483,337.771 388.377,336.877 389.479,336.877 C390.581,336.877 391.474,337.771 391.474,338.873" id="Fill-93" fill="#F5BB3D"></path>
        <path d="M398.052,338.873 C398.052,339.974 397.158,340.868 396.057,340.868 C394.954,340.868 394.062,339.974 394.062,338.873 C394.062,337.771 394.954,336.877 396.057,336.877 C397.158,336.877 398.052,337.771 398.052,338.873" id="Fill-94" fill="#F5BB3D"></path>
        <path d="M404.629,338.873 C404.629,339.974 403.735,340.868 402.634,340.868 C401.532,340.868 400.639,339.974 400.639,338.873 C400.639,337.771 401.532,336.877 402.634,336.877 C403.735,336.877 404.629,337.771 404.629,338.873" id="Fill-95" fill="#F5BB3D"></path>
        <path d="M378.319,344.858 C378.319,345.96 377.426,346.853 376.324,346.853 C375.222,346.853 374.329,345.96 374.329,344.858 C374.329,343.756 375.222,342.863 376.324,342.863 C377.426,342.863 378.319,343.756 378.319,344.858" id="Fill-96" fill="#F5BB3D"></path>
        <path d="M384.897,344.858 C384.897,345.96 384.004,346.853 382.901,346.853 C381.8,346.853 380.906,345.96 380.906,344.858 C380.906,343.756 381.8,342.863 382.901,342.863 C384.004,342.863 384.897,343.756 384.897,344.858" id="Fill-97" fill="#F5BB3D"></path>
        <path d="M391.474,344.858 C391.474,345.96 390.581,346.853 389.479,346.853 C388.377,346.853 387.483,345.96 387.483,344.858 C387.483,343.756 388.377,342.863 389.479,342.863 C390.581,342.863 391.474,343.756 391.474,344.858" id="Fill-98" fill="#F5BB3D"></path>
        <path d="M398.052,344.858 C398.052,345.96 397.158,346.853 396.057,346.853 C394.954,346.853 394.062,345.96 394.062,344.858 C394.062,343.756 394.954,342.863 396.057,342.863 C397.158,342.863 398.052,343.756 398.052,344.858" id="Fill-99" fill="#F5BB3D"></path>
        <path d="M404.629,344.858 C404.629,345.96 403.735,346.853 402.634,346.853 C401.532,346.853 400.639,345.96 400.639,344.858 C400.639,343.756 401.532,342.863 402.634,342.863 C403.735,342.863 404.629,343.756 404.629,344.858" id="Fill-100" fill="#F5BB3D"></path>
        <path d="M378.319,350.844 C378.319,351.946 377.426,352.839 376.324,352.839 C375.222,352.839 374.329,351.946 374.329,350.844 C374.329,349.742 375.222,348.848 376.324,348.848 C377.426,348.848 378.319,349.742 378.319,350.844" id="Fill-101" fill="#F5BB3D"></path>
        <path d="M384.897,350.844 C384.897,351.946 384.004,352.839 382.901,352.839 C381.8,352.839 380.906,351.946 380.906,350.844 C380.906,349.742 381.8,348.848 382.901,348.848 C384.004,348.848 384.897,349.742 384.897,350.844" id="Fill-102" fill="#F5BB3D"></path>
        <path d="M391.474,350.844 C391.474,351.946 390.581,352.839 389.479,352.839 C388.377,352.839 387.483,351.946 387.483,350.844 C387.483,349.742 388.377,348.848 389.479,348.848 C390.581,348.848 391.474,349.742 391.474,350.844" id="Fill-103" fill="#F5BB3D"></path>
        <path d="M398.052,350.844 C398.052,351.946 397.158,352.839 396.057,352.839 C394.954,352.839 394.062,351.946 394.062,350.844 C394.062,349.742 394.954,348.848 396.057,348.848 C397.158,348.848 398.052,349.742 398.052,350.844" id="Fill-104" fill="#F5BB3D"></path>
        <path d="M404.629,350.844 C404.629,351.946 403.735,352.839 402.634,352.839 C401.532,352.839 400.639,351.946 400.639,350.844 C400.639,349.742 401.532,348.848 402.634,348.848 C403.735,348.848 404.629,349.742 404.629,350.844" id="Fill-105" fill="#F5BB3D"></path>
        <polygon id="Fill-106" fill="#132529" points="370.544 352.839 371.693 352.839 371.693 336.877 370.544 336.877"></polygon>
        <polygon id="Fill-107" fill="#253C40" points="304.515 328.048 407.727 328.048 407.727 304.212 304.515 304.212"></polygon>
        <polygon id="Fill-108" fill="#334F55" points="308.859 310.162 367.609 310.162 367.609 308.15 308.859 308.15"></polygon>
        <polygon id="Fill-109" fill="#334F55" points="308.859 313.649 367.609 313.649 367.609 311.637 308.859 311.637"></polygon>
        <polygon id="Fill-110" fill="#334F55" points="308.859 317.136 367.609 317.136 367.609 315.124 308.859 315.124"></polygon>
        <polygon id="Fill-111" fill="#334F55" points="308.859 320.623 367.609 320.623 367.609 318.612 308.859 318.612"></polygon>
        <polygon id="Fill-112" fill="#334F55" points="308.859 324.111 367.609 324.111 367.609 322.099 308.859 322.099"></polygon>
        <path d="M378.319,310.145 C378.319,311.247 377.426,312.14 376.324,312.14 C375.222,312.14 374.329,311.247 374.329,310.145 C374.329,309.042 375.222,308.15 376.324,308.15 C377.426,308.15 378.319,309.042 378.319,310.145" id="Fill-113" fill="#F5BB3D"></path>
        <path d="M384.897,310.145 C384.897,311.247 384.004,312.14 382.901,312.14 C381.8,312.14 380.906,311.247 380.906,310.145 C380.906,309.042 381.8,308.15 382.901,308.15 C384.004,308.15 384.897,309.042 384.897,310.145" id="Fill-114" fill="#F5BB3D"></path>
        <path d="M391.474,310.145 C391.474,311.247 390.581,312.14 389.479,312.14 C388.377,312.14 387.483,311.247 387.483,310.145 C387.483,309.042 388.377,308.15 389.479,308.15 C390.581,308.15 391.474,309.042 391.474,310.145" id="Fill-115" fill="#F5BB3D"></path>
        <path d="M398.052,310.145 C398.052,311.247 397.158,312.14 396.057,312.14 C394.954,312.14 394.062,311.247 394.062,310.145 C394.062,309.042 394.954,308.15 396.057,308.15 C397.158,308.15 398.052,309.042 398.052,310.145" id="Fill-116" fill="#F5BB3D"></path>
        <path d="M404.629,310.145 C404.629,311.247 403.735,312.14 402.634,312.14 C401.532,312.14 400.639,311.247 400.639,310.145 C400.639,309.042 401.532,308.15 402.634,308.15 C403.735,308.15 404.629,309.042 404.629,310.145" id="Fill-117" fill="#F5BB3D"></path>
        <path d="M378.319,316.13 C378.319,317.232 377.426,318.125 376.324,318.125 C375.222,318.125 374.329,317.232 374.329,316.13 C374.329,315.029 375.222,314.135 376.324,314.135 C377.426,314.135 378.319,315.029 378.319,316.13" id="Fill-118" fill="#F5BB3D"></path>
        <path d="M384.897,316.13 C384.897,317.232 384.004,318.125 382.901,318.125 C381.8,318.125 380.906,317.232 380.906,316.13 C380.906,315.029 381.8,314.135 382.901,314.135 C384.004,314.135 384.897,315.029 384.897,316.13" id="Fill-119" fill="#F5BB3D"></path>
        <path d="M391.474,316.13 C391.474,317.232 390.581,318.125 389.479,318.125 C388.377,318.125 387.483,317.232 387.483,316.13 C387.483,315.029 388.377,314.135 389.479,314.135 C390.581,314.135 391.474,315.029 391.474,316.13" id="Fill-120" fill="#F5BB3D"></path>
        <path d="M398.052,316.13 C398.052,317.232 397.158,318.125 396.057,318.125 C394.954,318.125 394.062,317.232 394.062,316.13 C394.062,315.029 394.954,314.135 396.057,314.135 C397.158,314.135 398.052,315.029 398.052,316.13" id="Fill-121" fill="#F5BB3D"></path>
        <path d="M404.629,316.13 C404.629,317.232 403.735,318.125 402.634,318.125 C401.532,318.125 400.639,317.232 400.639,316.13 C400.639,315.029 401.532,314.135 402.634,314.135 C403.735,314.135 404.629,315.029 404.629,316.13" id="Fill-122" fill="#F5BB3D"></path>
        <path d="M378.319,322.116 C378.319,323.218 377.426,324.111 376.324,324.111 C375.222,324.111 374.329,323.218 374.329,322.116 C374.329,321.014 375.222,320.121 376.324,320.121 C377.426,320.121 378.319,321.014 378.319,322.116" id="Fill-123" fill="#F5BB3D"></path>
        <path d="M384.897,322.116 C384.897,323.218 384.004,324.111 382.901,324.111 C381.8,324.111 380.906,323.218 380.906,322.116 C380.906,321.014 381.8,320.121 382.901,320.121 C384.004,320.121 384.897,321.014 384.897,322.116" id="Fill-124" fill="#F5BB3D"></path>
        <path d="M391.474,322.116 C391.474,323.218 390.581,324.111 389.479,324.111 C388.377,324.111 387.483,323.218 387.483,322.116 C387.483,321.014 388.377,320.121 389.479,320.121 C390.581,320.121 391.474,321.014 391.474,322.116" id="Fill-125" fill="#F5BB3D"></path>
        <path d="M398.052,322.116 C398.052,323.218 397.158,324.111 396.057,324.111 C394.954,324.111 394.062,323.218 394.062,322.116 C394.062,321.014 394.954,320.121 396.057,320.121 C397.158,320.121 398.052,321.014 398.052,322.116" id="Fill-126" fill="#F5BB3D"></path>
        <path d="M404.629,322.116 C404.629,323.218 403.735,324.111 402.634,324.111 C401.532,324.111 400.639,323.218 400.639,322.116 C400.639,321.014 401.532,320.121 402.634,320.121 C403.735,320.121 404.629,321.014 404.629,322.116" id="Fill-127" fill="#F5BB3D"></path>
        <polygon id="Fill-128" fill="#132529" points="370.544 324.111 371.693 324.111 371.693 308.15 370.544 308.15"></polygon>
        <polygon id="Fill-129" fill="#253C40" points="304.515 299.321 407.727 299.321 407.727 275.485 304.515 275.485"></polygon>
        <polygon id="Fill-130" fill="#334F55" points="308.859 281.433 367.609 281.433 367.609 279.421 308.859 279.421"></polygon>
        <polygon id="Fill-131" fill="#334F55" points="308.859 284.921 367.609 284.921 367.609 282.91 308.859 282.91"></polygon>
        <polygon id="Fill-132" fill="#334F55" points="308.859 288.409 367.609 288.409 367.609 286.397 308.859 286.397"></polygon>
        <polygon id="Fill-133" fill="#334F55" points="308.859 291.896 367.609 291.896 367.609 289.884 308.859 289.884"></polygon>
        <polygon id="Fill-134" fill="#334F55" points="308.859 295.383 367.609 295.383 367.609 293.372 308.859 293.372"></polygon>
        <path d="M378.319,281.417 C378.319,282.519 377.426,283.413 376.324,283.413 C375.222,283.413 374.329,282.519 374.329,281.417 C374.329,280.315 375.222,279.421 376.324,279.421 C377.426,279.421 378.319,280.315 378.319,281.417" id="Fill-135" fill="#F5BB3D"></path>
        <path d="M384.897,281.417 C384.897,282.519 384.004,283.413 382.901,283.413 C381.8,283.413 380.906,282.519 380.906,281.417 C380.906,280.315 381.8,279.421 382.901,279.421 C384.004,279.421 384.897,280.315 384.897,281.417" id="Fill-136" fill="#F5BB3D"></path>
        <path d="M391.474,281.417 C391.474,282.519 390.581,283.413 389.479,283.413 C388.377,283.413 387.483,282.519 387.483,281.417 C387.483,280.315 388.377,279.421 389.479,279.421 C390.581,279.421 391.474,280.315 391.474,281.417" id="Fill-137" fill="#F5BB3D"></path>
        <path d="M398.052,281.417 C398.052,282.519 397.158,283.413 396.057,283.413 C394.954,283.413 394.062,282.519 394.062,281.417 C394.062,280.315 394.954,279.421 396.057,279.421 C397.158,279.421 398.052,280.315 398.052,281.417" id="Fill-138" fill="#F5BB3D"></path>
        <path d="M404.629,281.417 C404.629,282.519 403.735,283.413 402.634,283.413 C401.532,283.413 400.639,282.519 400.639,281.417 C400.639,280.315 401.532,279.421 402.634,279.421 C403.735,279.421 404.629,280.315 404.629,281.417" id="Fill-139" fill="#F5BB3D"></path>
        <path d="M378.319,287.403 C378.319,288.504 377.426,289.398 376.324,289.398 C375.222,289.398 374.329,288.504 374.329,287.403 C374.329,286.3 375.222,285.408 376.324,285.408 C377.426,285.408 378.319,286.3 378.319,287.403" id="Fill-140" fill="#F5BB3D"></path>
        <path d="M384.897,287.403 C384.897,288.504 384.004,289.398 382.901,289.398 C381.8,289.398 380.906,288.504 380.906,287.403 C380.906,286.3 381.8,285.408 382.901,285.408 C384.004,285.408 384.897,286.3 384.897,287.403" id="Fill-141" fill="#F5BB3D"></path>
        <path d="M391.474,287.403 C391.474,288.504 390.581,289.398 389.479,289.398 C388.377,289.398 387.483,288.504 387.483,287.403 C387.483,286.3 388.377,285.408 389.479,285.408 C390.581,285.408 391.474,286.3 391.474,287.403" id="Fill-142" fill="#F5BB3D"></path>
        <path d="M398.052,287.403 C398.052,288.504 397.158,289.398 396.057,289.398 C394.954,289.398 394.062,288.504 394.062,287.403 C394.062,286.3 394.954,285.408 396.057,285.408 C397.158,285.408 398.052,286.3 398.052,287.403" id="Fill-143" fill="#F5BB3D"></path>
        <path d="M404.629,287.403 C404.629,288.504 403.735,289.398 402.634,289.398 C401.532,289.398 400.639,288.504 400.639,287.403 C400.639,286.3 401.532,285.408 402.634,285.408 C403.735,285.408 404.629,286.3 404.629,287.403" id="Fill-144" fill="#F5BB3D"></path>
        <path d="M378.319,293.388 C378.319,294.49 377.426,295.383 376.324,295.383 C375.222,295.383 374.329,294.49 374.329,293.388 C374.329,292.287 375.222,291.393 376.324,291.393 C377.426,291.393 378.319,292.287 378.319,293.388" id="Fill-145" fill="#F5BB3D"></path>
        <path d="M384.897,293.388 C384.897,294.49 384.004,295.383 382.901,295.383 C381.8,295.383 380.906,294.49 380.906,293.388 C380.906,292.287 381.8,291.393 382.901,291.393 C384.004,291.393 384.897,292.287 384.897,293.388" id="Fill-146" fill="#F5BB3D"></path>
        <path d="M391.474,293.388 C391.474,294.49 390.581,295.383 389.479,295.383 C388.377,295.383 387.483,294.49 387.483,293.388 C387.483,292.287 388.377,291.393 389.479,291.393 C390.581,291.393 391.474,292.287 391.474,293.388" id="Fill-147" fill="#F5BB3D"></path>
        <path d="M398.052,293.388 C398.052,294.49 397.158,295.383 396.057,295.383 C394.954,295.383 394.062,294.49 394.062,293.388 C394.062,292.287 394.954,291.393 396.057,291.393 C397.158,291.393 398.052,292.287 398.052,293.388" id="Fill-148" fill="#F5BB3D"></path>
        <path d="M404.629,293.388 C404.629,294.49 403.735,295.383 402.634,295.383 C401.532,295.383 400.639,294.49 400.639,293.388 C400.639,292.287 401.532,291.393 402.634,291.393 C403.735,291.393 404.629,292.287 404.629,293.388" id="Fill-149" fill="#F5BB3D"></path>
        <polygon id="Fill-150" fill="#132529" points="370.544 295.383 371.693 295.383 371.693 279.421 370.544 279.421"></polygon>
        <polygon id="Fill-151" fill="#253C40" points="304.515 270.592 407.727 270.592 407.727 246.757 304.515 246.757"></polygon>
        <polygon id="Fill-152" fill="#334F55" points="308.859 252.706 367.609 252.706 367.609 250.694 308.859 250.694"></polygon>
        <polygon id="Fill-153" fill="#334F55" points="308.859 256.193 367.609 256.193 367.609 254.181 308.859 254.181"></polygon>
        <polygon id="Fill-154" fill="#334F55" points="308.859 259.681 367.609 259.681 367.609 257.669 308.859 257.669"></polygon>
        <polygon id="Fill-155" fill="#334F55" points="308.859 263.168 367.609 263.168 367.609 261.157 308.859 261.157"></polygon>
        <polygon id="Fill-156" fill="#334F55" points="308.859 266.656 367.609 266.656 367.609 264.644 308.859 264.644"></polygon>
        <path d="M378.319,252.689 C378.319,253.791 377.426,254.684 376.324,254.684 C375.222,254.684 374.329,253.791 374.329,252.689 C374.329,251.587 375.222,250.694 376.324,250.694 C377.426,250.694 378.319,251.587 378.319,252.689" id="Fill-157" fill="#F5BB3D"></path>
        <path d="M384.897,252.689 C384.897,253.791 384.004,254.684 382.901,254.684 C381.8,254.684 380.906,253.791 380.906,252.689 C380.906,251.587 381.8,250.694 382.901,250.694 C384.004,250.694 384.897,251.587 384.897,252.689" id="Fill-158" fill="#F5BB3D"></path>
        <path d="M391.474,252.689 C391.474,253.791 390.581,254.684 389.479,254.684 C388.377,254.684 387.483,253.791 387.483,252.689 C387.483,251.587 388.377,250.694 389.479,250.694 C390.581,250.694 391.474,251.587 391.474,252.689" id="Fill-159" fill="#F5BB3D"></path>
        <path d="M398.052,252.689 C398.052,253.791 397.158,254.684 396.057,254.684 C394.954,254.684 394.062,253.791 394.062,252.689 C394.062,251.587 394.954,250.694 396.057,250.694 C397.158,250.694 398.052,251.587 398.052,252.689" id="Fill-160" fill="#F5BB3D"></path>
        <path d="M404.629,252.689 C404.629,253.791 403.735,254.684 402.634,254.684 C401.532,254.684 400.639,253.791 400.639,252.689 C400.639,251.587 401.532,250.694 402.634,250.694 C403.735,250.694 404.629,251.587 404.629,252.689" id="Fill-161" fill="#F5BB3D"></path>
        <path d="M378.319,258.675 C378.319,259.777 377.426,260.67 376.324,260.67 C375.222,260.67 374.329,259.777 374.329,258.675 C374.329,257.573 375.222,256.68 376.324,256.68 C377.426,256.68 378.319,257.573 378.319,258.675" id="Fill-162" fill="#F5BB3D"></path>
        <path d="M384.897,258.675 C384.897,259.777 384.004,260.67 382.901,260.67 C381.8,260.67 380.906,259.777 380.906,258.675 C380.906,257.573 381.8,256.68 382.901,256.68 C384.004,256.68 384.897,257.573 384.897,258.675" id="Fill-163" fill="#F5BB3D"></path>
        <path d="M391.474,258.675 C391.474,259.777 390.581,260.67 389.479,260.67 C388.377,260.67 387.483,259.777 387.483,258.675 C387.483,257.573 388.377,256.68 389.479,256.68 C390.581,256.68 391.474,257.573 391.474,258.675" id="Fill-164" fill="#F5BB3D"></path>
        <path d="M398.052,258.675 C398.052,259.777 397.158,260.67 396.057,260.67 C394.954,260.67 394.062,259.777 394.062,258.675 C394.062,257.573 394.954,256.68 396.057,256.68 C397.158,256.68 398.052,257.573 398.052,258.675" id="Fill-165" fill="#F5BB3D"></path>
        <path d="M404.629,258.675 C404.629,259.777 403.735,260.67 402.634,260.67 C401.532,260.67 400.639,259.777 400.639,258.675 C400.639,257.573 401.532,256.68 402.634,256.68 C403.735,256.68 404.629,257.573 404.629,258.675" id="Fill-166" fill="#F5BB3D"></path>
        <path d="M378.319,264.661 C378.319,265.762 377.426,266.656 376.324,266.656 C375.222,266.656 374.329,265.762 374.329,264.661 C374.329,263.558 375.222,262.665 376.324,262.665 C377.426,262.665 378.319,263.558 378.319,264.661" id="Fill-167" fill="#F5BB3D"></path>
        <path d="M384.897,264.661 C384.897,265.762 384.004,266.656 382.901,266.656 C381.8,266.656 380.906,265.762 380.906,264.661 C380.906,263.558 381.8,262.665 382.901,262.665 C384.004,262.665 384.897,263.558 384.897,264.661" id="Fill-168" fill="#F5BB3D"></path>
        <path d="M391.474,264.661 C391.474,265.762 390.581,266.656 389.479,266.656 C388.377,266.656 387.483,265.762 387.483,264.661 C387.483,263.558 388.377,262.665 389.479,262.665 C390.581,262.665 391.474,263.558 391.474,264.661" id="Fill-169" fill="#F5BB3D"></path>
        <path d="M398.052,264.661 C398.052,265.762 397.158,266.656 396.057,266.656 C394.954,266.656 394.062,265.762 394.062,264.661 C394.062,263.558 394.954,262.665 396.057,262.665 C397.158,262.665 398.052,263.558 398.052,264.661" id="Fill-170" fill="#F5BB3D"></path>
        <path d="M404.629,264.661 C404.629,265.762 403.735,266.656 402.634,266.656 C401.532,266.656 400.639,265.762 400.639,264.661 C400.639,263.558 401.532,262.665 402.634,262.665 C403.735,262.665 404.629,263.558 404.629,264.661" id="Fill-171" fill="#F5BB3D"></path>
        <polygon id="Fill-172" fill="#132529" points="370.544 266.656 371.693 266.656 371.693 250.694 370.544 250.694"></polygon>
        <polygon id="Fill-173" fill="#253C40" points="304.515 241.865 407.727 241.865 407.727 218.029 304.515 218.029"></polygon>
        <polygon id="Fill-174" fill="#334F55" points="308.859 223.978 367.609 223.978 367.609 221.966 308.859 221.966"></polygon>
        <polygon id="Fill-175" fill="#334F55" points="308.859 227.465 367.609 227.465 367.609 225.454 308.859 225.454"></polygon>
        <polygon id="Fill-176" fill="#334F55" points="308.859 230.953 367.609 230.953 367.609 228.941 308.859 228.941"></polygon>
        <polygon id="Fill-177" fill="#334F55" points="308.859 234.44 367.609 234.44 367.609 232.429 308.859 232.429"></polygon>
        <polygon id="Fill-178" fill="#334F55" points="308.859 237.928 367.609 237.928 367.609 235.916 308.859 235.916"></polygon>
        <path d="M378.319,223.961 C378.319,225.063 377.426,225.956 376.324,225.956 C375.222,225.956 374.329,225.063 374.329,223.961 C374.329,222.859 375.222,221.966 376.324,221.966 C377.426,221.966 378.319,222.859 378.319,223.961" id="Fill-179" fill="#F5BB3D"></path>
        <path d="M384.897,223.961 C384.897,225.063 384.004,225.956 382.901,225.956 C381.8,225.956 380.906,225.063 380.906,223.961 C380.906,222.859 381.8,221.966 382.901,221.966 C384.004,221.966 384.897,222.859 384.897,223.961" id="Fill-180" fill="#F5BB3D"></path>
        <path d="M391.474,223.961 C391.474,225.063 390.581,225.956 389.479,225.956 C388.377,225.956 387.483,225.063 387.483,223.961 C387.483,222.859 388.377,221.966 389.479,221.966 C390.581,221.966 391.474,222.859 391.474,223.961" id="Fill-181" fill="#F5BB3D"></path>
        <path d="M398.052,223.961 C398.052,225.063 397.158,225.956 396.057,225.956 C394.954,225.956 394.062,225.063 394.062,223.961 C394.062,222.859 394.954,221.966 396.057,221.966 C397.158,221.966 398.052,222.859 398.052,223.961" id="Fill-182" fill="#F5BB3D"></path>
        <path d="M404.629,223.961 C404.629,225.063 403.735,225.956 402.634,225.956 C401.532,225.956 400.639,225.063 400.639,223.961 C400.639,222.859 401.532,221.966 402.634,221.966 C403.735,221.966 404.629,222.859 404.629,223.961" id="Fill-183" fill="#F5BB3D"></path>
        <path d="M378.319,229.947 C378.319,231.049 377.426,231.942 376.324,231.942 C375.222,231.942 374.329,231.049 374.329,229.947 C374.329,228.845 375.222,227.952 376.324,227.952 C377.426,227.952 378.319,228.845 378.319,229.947" id="Fill-184" fill="#F5BB3D"></path>
        <path d="M384.897,229.947 C384.897,231.049 384.004,231.942 382.901,231.942 C381.8,231.942 380.906,231.049 380.906,229.947 C380.906,228.845 381.8,227.952 382.901,227.952 C384.004,227.952 384.897,228.845 384.897,229.947" id="Fill-185" fill="#F5BB3D"></path>
        <path d="M391.474,229.947 C391.474,231.049 390.581,231.942 389.479,231.942 C388.377,231.942 387.483,231.049 387.483,229.947 C387.483,228.845 388.377,227.952 389.479,227.952 C390.581,227.952 391.474,228.845 391.474,229.947" id="Fill-186" fill="#F5BB3D"></path>
        <path d="M398.052,229.947 C398.052,231.049 397.158,231.942 396.057,231.942 C394.954,231.942 394.062,231.049 394.062,229.947 C394.062,228.845 394.954,227.952 396.057,227.952 C397.158,227.952 398.052,228.845 398.052,229.947" id="Fill-187" fill="#F5BB3D"></path>
        <path d="M404.629,229.947 C404.629,231.049 403.735,231.942 402.634,231.942 C401.532,231.942 400.639,231.049 400.639,229.947 C400.639,228.845 401.532,227.952 402.634,227.952 C403.735,227.952 404.629,228.845 404.629,229.947" id="Fill-188" fill="#F5BB3D"></path>
        <path d="M378.319,235.933 C378.319,237.035 377.426,237.928 376.324,237.928 C375.222,237.928 374.329,237.035 374.329,235.933 C374.329,234.831 375.222,233.937 376.324,233.937 C377.426,233.937 378.319,234.831 378.319,235.933" id="Fill-189" fill="#F5BB3D"></path>
        <path d="M384.897,235.933 C384.897,237.035 384.004,237.928 382.901,237.928 C381.8,237.928 380.906,237.035 380.906,235.933 C380.906,234.831 381.8,233.937 382.901,233.937 C384.004,233.937 384.897,234.831 384.897,235.933" id="Fill-190" fill="#F5BB3D"></path>
        <path d="M391.474,235.933 C391.474,237.035 390.581,237.928 389.479,237.928 C388.377,237.928 387.483,237.035 387.483,235.933 C387.483,234.831 388.377,233.937 389.479,233.937 C390.581,233.937 391.474,234.831 391.474,235.933" id="Fill-191" fill="#F5BB3D"></path>
        <path d="M398.052,235.933 C398.052,237.035 397.158,237.928 396.057,237.928 C394.954,237.928 394.062,237.035 394.062,235.933 C394.062,234.831 394.954,233.937 396.057,233.937 C397.158,233.937 398.052,234.831 398.052,235.933" id="Fill-192" fill="#F5BB3D"></path>
        <path d="M404.629,235.933 C404.629,237.035 403.735,237.928 402.634,237.928 C401.532,237.928 400.639,237.035 400.639,235.933 C400.639,234.831 401.532,233.937 402.634,233.937 C403.735,233.937 404.629,234.831 404.629,235.933" id="Fill-193" fill="#F5BB3D"></path>
        <polygon id="Fill-194" fill="#132529" points="370.544 237.928 371.693 237.928 371.693 221.966 370.544 221.966"></polygon>
        <polygon id="Fill-195" fill="#253C40" points="304.515 213.137 407.727 213.137 407.727 189.302 304.515 189.302"></polygon>
        <polygon id="Fill-196" fill="#334F55" points="308.859 195.25 367.609 195.25 367.609 193.239 308.859 193.239"></polygon>
        <polygon id="Fill-197" fill="#334F55" points="308.859 198.738 367.609 198.738 367.609 196.726 308.859 196.726"></polygon>
        <polygon id="Fill-198" fill="#334F55" points="308.859 202.225 367.609 202.225 367.609 200.213 308.859 200.213"></polygon>
        <polygon id="Fill-199" fill="#334F55" points="308.859 205.713 367.609 205.713 367.609 203.701 308.859 203.701"></polygon>
        <polygon id="Fill-200" fill="#334F55" points="308.859 209.2 367.609 209.2 367.609 207.188 308.859 207.188"></polygon>
        <path d="M378.319,195.234 C378.319,196.336 377.426,197.229 376.324,197.229 C375.222,197.229 374.329,196.336 374.329,195.234 C374.329,194.132 375.222,193.239 376.324,193.239 C377.426,193.239 378.319,194.132 378.319,195.234" id="Fill-201" fill="#F5BB3D"></path>
        <path d="M384.897,195.234 C384.897,196.336 384.004,197.229 382.901,197.229 C381.8,197.229 380.906,196.336 380.906,195.234 C380.906,194.132 381.8,193.239 382.901,193.239 C384.004,193.239 384.897,194.132 384.897,195.234" id="Fill-202" fill="#F5BB3D"></path>
        <path d="M391.474,195.234 C391.474,196.336 390.581,197.229 389.479,197.229 C388.377,197.229 387.483,196.336 387.483,195.234 C387.483,194.132 388.377,193.239 389.479,193.239 C390.581,193.239 391.474,194.132 391.474,195.234" id="Fill-203" fill="#F5BB3D"></path>
        <path d="M398.052,195.234 C398.052,196.336 397.158,197.229 396.057,197.229 C394.954,197.229 394.062,196.336 394.062,195.234 C394.062,194.132 394.954,193.239 396.057,193.239 C397.158,193.239 398.052,194.132 398.052,195.234" id="Fill-204" fill="#F5BB3D"></path>
        <path d="M404.629,195.234 C404.629,196.336 403.735,197.229 402.634,197.229 C401.532,197.229 400.639,196.336 400.639,195.234 C400.639,194.132 401.532,193.239 402.634,193.239 C403.735,193.239 404.629,194.132 404.629,195.234" id="Fill-205" fill="#F5BB3D"></path>
        <path d="M378.319,201.219 C378.319,202.321 377.426,203.214 376.324,203.214 C375.222,203.214 374.329,202.321 374.329,201.219 C374.329,200.118 375.222,199.224 376.324,199.224 C377.426,199.224 378.319,200.118 378.319,201.219" id="Fill-206" fill="#F5BB3D"></path>
        <path d="M384.897,201.219 C384.897,202.321 384.004,203.214 382.901,203.214 C381.8,203.214 380.906,202.321 380.906,201.219 C380.906,200.118 381.8,199.224 382.901,199.224 C384.004,199.224 384.897,200.118 384.897,201.219" id="Fill-207" fill="#F5BB3D"></path>
        <path d="M391.474,201.219 C391.474,202.321 390.581,203.214 389.479,203.214 C388.377,203.214 387.483,202.321 387.483,201.219 C387.483,200.118 388.377,199.224 389.479,199.224 C390.581,199.224 391.474,200.118 391.474,201.219" id="Fill-208" fill="#F5BB3D"></path>
        <path d="M398.052,201.219 C398.052,202.321 397.158,203.214 396.057,203.214 C394.954,203.214 394.062,202.321 394.062,201.219 C394.062,200.118 394.954,199.224 396.057,199.224 C397.158,199.224 398.052,200.118 398.052,201.219" id="Fill-209" fill="#F5BB3D"></path>
        <path d="M404.629,201.219 C404.629,202.321 403.735,203.214 402.634,203.214 C401.532,203.214 400.639,202.321 400.639,201.219 C400.639,200.118 401.532,199.224 402.634,199.224 C403.735,199.224 404.629,200.118 404.629,201.219" id="Fill-210" fill="#F5BB3D"></path>
        <path d="M378.319,207.205 C378.319,208.307 377.426,209.2 376.324,209.2 C375.222,209.2 374.329,208.307 374.329,207.205 C374.329,206.103 375.222,205.21 376.324,205.21 C377.426,205.21 378.319,206.103 378.319,207.205" id="Fill-211" fill="#F5BB3D"></path>
        <path d="M384.897,207.205 C384.897,208.307 384.004,209.2 382.901,209.2 C381.8,209.2 380.906,208.307 380.906,207.205 C380.906,206.103 381.8,205.21 382.901,205.21 C384.004,205.21 384.897,206.103 384.897,207.205" id="Fill-212" fill="#F5BB3D"></path>
        <path d="M391.474,207.205 C391.474,208.307 390.581,209.2 389.479,209.2 C388.377,209.2 387.483,208.307 387.483,207.205 C387.483,206.103 388.377,205.21 389.479,205.21 C390.581,205.21 391.474,206.103 391.474,207.205" id="Fill-213" fill="#F5BB3D"></path>
        <path d="M398.052,207.205 C398.052,208.307 397.158,209.2 396.057,209.2 C394.954,209.2 394.062,208.307 394.062,207.205 C394.062,206.103 394.954,205.21 396.057,205.21 C397.158,205.21 398.052,206.103 398.052,207.205" id="Fill-214" fill="#F5BB3D"></path>
        <path d="M404.629,207.205 C404.629,208.307 403.735,209.2 402.634,209.2 C401.532,209.2 400.639,208.307 400.639,207.205 C400.639,206.103 401.532,205.21 402.634,205.21 C403.735,205.21 404.629,206.103 404.629,207.205" id="Fill-215" fill="#F5BB3D"></path>
        <polygon id="Fill-216" fill="#132529" points="370.544 209.2 371.693 209.2 371.693 193.239 370.544 193.239"></polygon>
        <polygon id="Fill-217" fill="#253C40" points="254.837 177.022 390.889 177.022 390.889 169.463 254.837 169.463"></polygon>
        <polygon id="Fill-218" fill="#132529" points="241.01 399.863 256.203 399.863 256.203 384.67 241.01 384.67"></polygon>
        <polyline id="Fill-245" fill="#132529" points="0 422.194 53.287 421.952 106.574 421.863 213.148 421.696 319.722 421.862 373.008 421.95 426.295 422.194 373.008 422.439 319.722 422.527 213.148 422.693 106.574 422.526 53.287 422.437 0 422.194"></polyline>
        <path d="M91.232,397.126 C92.199,399.241 88.385,414.432 87.188,417.549 C85.991,420.667 81.799,438.08 79.757,438.832 C77.714,439.585 67.826,439.371 66.428,438.832 C65.031,438.295 66.428,435.324 68.041,434.284 C69.653,433.244 71.573,431.648 71.573,431.648 C71.573,431.648 68.685,404.758 69.223,401.748 C69.76,398.739 88.626,391.429 91.232,397.126" id="Fill-246" fill="#F5BB3D"></path>
        <path d="M73.561,439.32 C72.588,439.32 71.604,439.301 70.689,439.266 C70.691,439.261 70.694,439.256 70.696,439.25 C70.863,438.792 70.989,438.32 71.202,437.88 C71.414,437.445 71.651,437.026 71.896,436.609 C72.139,436.197 72.416,435.803 72.743,435.453 C72.911,435.272 73.089,435.099 73.264,434.925 C73.438,434.753 73.637,434.617 73.814,434.451 L73.749,434.333 C73.244,434.426 72.737,434.717 72.332,435.021 C71.896,435.347 71.514,435.735 71.193,436.174 C70.876,436.61 70.656,437.136 70.547,437.662 C70.44,438.181 70.377,438.724 70.501,439.246 C70.502,439.25 70.503,439.255 70.505,439.259 C69.493,439.218 68.571,439.157 67.847,439.081 C67.526,438.144 67.769,437.087 68.231,436.238 C68.697,435.381 69.416,434.704 70.146,434.071 L70.071,433.97 C69.085,434.415 68.177,435.107 67.656,436.078 C67.153,437.015 67.151,438.179 67.747,439.07 C67.124,439.002 66.659,438.922 66.428,438.832 C66.024,438.677 65.854,438.318 65.854,437.862 C65.857,436.739 66.894,435.023 68.041,434.284 C69.653,433.244 71.573,431.648 71.573,431.648 C71.573,431.648 69.938,416.422 69.357,407.602 C69.358,407.604 69.359,407.606 69.361,407.607 C69.532,410.221 69.796,413.397 70.086,416.573 L83.675,429.433 C83.789,429.058 83.903,428.681 84.016,428.303 C84.017,428.304 84.018,428.306 84.02,428.308 C82.503,433.423 80.832,438.437 79.757,438.832 C78.819,439.178 76.226,439.32 73.561,439.32" id="Fill-247" fill="#ECAD30"></path>
        <path d="M70.594,439.32 C70.557,439.32 70.52,439.3 70.505,439.259 C70.566,439.261 70.627,439.264 70.689,439.266 C70.669,439.301 70.631,439.32 70.594,439.32" id="Fill-248" fill="#C6C7C2"></path>
        <path d="M70.689,439.266 C70.627,439.264 70.566,439.261 70.505,439.259 C70.503,439.255 70.502,439.25 70.501,439.246 C70.377,438.724 70.44,438.181 70.547,437.662 C70.656,437.136 70.876,436.61 71.193,436.174 C71.514,435.735 71.896,435.347 72.332,435.021 C72.737,434.717 73.244,434.426 73.749,434.333 L73.814,434.451 C73.637,434.617 73.438,434.753 73.264,434.925 C73.089,435.099 72.911,435.272 72.743,435.453 C72.416,435.803 72.139,436.197 71.896,436.609 C71.651,437.026 71.414,437.445 71.202,437.88 C70.989,438.32 70.863,438.792 70.696,439.25 C70.694,439.256 70.691,439.261 70.689,439.266" id="Fill-249" fill="#D09A2E"></path>
        <path d="M67.779,439.118 C67.768,439.102 67.757,439.086 67.747,439.07 C67.78,439.074 67.813,439.077 67.847,439.081 C67.848,439.084 67.849,439.087 67.85,439.089 L67.779,439.118" id="Fill-250" fill="#C6C7C2"></path>
        <path d="M67.847,439.081 C67.813,439.077 67.78,439.074 67.747,439.07 C67.151,438.179 67.153,437.015 67.656,436.078 C68.177,435.107 69.085,434.415 70.071,433.97 L70.146,434.071 C69.416,434.704 68.697,435.381 68.231,436.238 C67.769,437.087 67.526,438.144 67.847,439.081" id="Fill-251" fill="#D09A2E"></path>
        <path d="M83.675,429.433 L70.086,416.573 C69.796,413.397 69.532,410.221 69.361,407.607 C73.279,413.923 79.145,422.319 84.016,428.303 C83.903,428.681 83.789,429.058 83.675,429.433" id="Fill-252" fill="#D09A2E"></path>
        <path d="M142.554,412.324 C143.105,412.846 148.453,407.785 149.274,405.414 C150.096,403.043 146.673,396.353 147.306,395.215 C147.939,394.079 150.854,393.163 152.365,394.914 C153.876,396.663 157.752,406.256 156.944,410.357 C156.137,414.457 147.884,423.618 147.022,423.57118 C146.16,423.524 142.554,412.324 142.554,412.324" id="Fill-253" fill="#F5BB3D"></path>
        <path d="M150.26,420.564 C150.218,418.718 149.992,416.743 149.549,414.648 C149.366,413.778 148.846,412.724 148.089,411.552 C147.628,410.837 147.079,410.079 146.465,409.292 C146.813,408.925 147.154,408.545 147.473,408.167 L154.964,414.486 C153.614,416.576 151.813,418.826 150.26,420.564" id="Fill-254" fill="#ECAD30"></path>
        <path d="M112.336,366.062 L67.933,366.062 C67.933,366.062 64.636,395.299 64.995,399.169 C65.353,403.038 84.869,431.71 90.921,435.41 C97.063,439.164 131.75,439.29 140.211,437.428 C146.79,435.981 152.281,427.584 149.549,414.648 C148.356,408.994 132.942,395.514 130.793,392.934 C128.643,390.355 112.336,366.062 112.336,366.062" id="Fill-255" fill="#B9BAB6"></path>
        <path d="M64.996,399.172 C65.355,403.042 84.865,431.713 90.925,435.413 C97.066,439.162 131.746,439.292 140.215,437.433 C146.786,435.983 152.286,427.582 149.545,414.643 C148.356,408.993 132.945,395.513 130.796,392.933 C129.476,391.353 122.856,381.633 117.916,374.332 C114.786,369.713 112.335,366.063 112.335,366.063 L67.936,366.063 C67.936,366.063 67.106,373.403 66.325,381.213 C65.545,388.993 64.815,397.243 64.996,399.172" id="Fill-256" fill="#F5BB3D"></path>
        <path d="M83.475,383.773 C78.047,383.773 72.267,383.046 66.325,381.213 C66.595,378.508 66.872,375.86 67.117,373.553 C70.199,375.995 76.31,379.823 83.671,380.33 C84.45,380.384 85.239,380.409 86.034,380.409 C87.348,380.409 88.678,380.341 89.999,380.223 C90.227,381.243 90.452,382.288 90.674,383.355 C88.36,383.622 85.953,383.773 83.475,383.773 M92.661,383.095 C92.443,382.046 92.221,381.015 91.995,380.007 C94.925,379.639 97.747,379.065 100.189,378.491 C104.271,377.532 107.291,376.573 107.984,376.573 C107.986,376.573 107.988,376.573 107.99,376.573 C108.03,376.573 108.069,376.573 108.109,376.573 C111.211,376.573 114.579,375.477 117.566,373.817 C117.682,373.987 117.798,374.159 117.916,374.332 C113.981,376.611 104.676,381.336 92.661,383.095" id="Fill-257" fill="#ECAD30"></path>
        <path d="M141.058,413.237 C141.058,413.237 128.834,405.57 120.265,406.956 C111.696,408.341 108.672,425.939 112.777,435.84 C112.777,435.84 104.958,438.163 104.958,441.941 C104.958,444.092 109.424,444.778 115.872,444.625 C122.319,444.473 135.128,444.343 135.412,442.724 C135.696,441.104 134.568,438.873 134.568,438.873 C134.568,438.873 146.134,437.57 148.404,429.908 C150.674,422.245 142.987,414.537 141.058,413.237" id="Fill-258" fill="#F5BB3D"></path>
        <path d="M134.667,439.082 C134.652,439.048 134.638,439.018 134.626,438.993 C134.636,438.993 134.647,438.994 134.657,438.995 L134.667,439.082" id="Fill-259" fill="#C6C7C2"></path>
        <path d="M132.942,439.216 C129.916,439.216 126.983,438.326 124.333,436.793 L124.372,436.708 C127.6,438.096 131.129,438.765 134.626,438.993 C134.638,439.018 134.652,439.048 134.667,439.082 L134.671,439.119 C134.092,439.184 133.515,439.216 132.942,439.216" id="Fill-260" fill="#ECAD30"></path>
        <path d="M110.151,444.849 C110.056,444.849 109.962,444.784 109.986,444.671 C110.002,444.601 110.019,444.531 110.039,444.461 C110.193,444.477 110.35,444.492 110.509,444.506 C110.436,444.599 110.362,444.692 110.289,444.787 C110.256,444.829 110.203,444.849 110.151,444.849" id="Fill-261" fill="#C6C7C2"></path>
        <path d="M110.509,444.506 C110.35,444.492 110.193,444.477 110.039,444.461 C110.418,443.097 111.508,442.013 112.648,441.229 C113.343,440.751 114.109,440.366 114.908,440.092 C115.823,439.78 116.772,439.612 117.692,439.324 L117.746,439.438 C116.952,439.705 116.184,440.109 115.444,440.498 C114.702,440.889 113.974,441.314 113.28,441.786 C112.181,442.532 111.324,443.479 110.509,444.506" id="Fill-262" fill="#ECAD30"></path>
        <path d="M106.224,444.014 C106.172,444.014 106.125,443.982 106.133,443.913 C106.147,443.789 106.165,443.666 106.187,443.545 C106.257,443.581 106.33,443.616 106.406,443.65 C106.419,443.672 106.431,443.694 106.444,443.716 C106.407,443.792 106.371,443.869 106.337,443.946 C106.317,443.99 106.269,444.014 106.224,444.014" id="Fill-263" fill="#C6C7C2"></path>
        <path d="M106.406,443.65 C106.33,443.616 106.257,443.581 106.187,443.545 C106.199,443.474 106.214,443.404 106.229,443.333 C106.288,443.44 106.347,443.545 106.406,443.65 M107.607,441.807 C107.489,441.582 107.372,441.355 107.256,441.124 C108.272,439.777 109.853,438.855 111.569,438.604 L111.6,438.727 C110.014,439.31 108.644,440.441 107.607,441.807" id="Fill-264" fill="#ECAD30"></path>
        <path d="M107.803,438.101 L107.755,438.053 C109.115,436.832 110.376,436.213 112.545,435.773 C111.115,433.172 110.515,430.203 110.436,427.243 C110.416,426.613 110.425,425.993 110.456,425.363 L110.456,425.343 C110.456,424.873 110.476,424.393 110.496,423.922 C110.666,419.823 111.625,415.723 113.565,412.042 C114.575,410.253 115.865,408.493 117.765,407.403 C119.217,406.609 120.823,406.336 122.407,406.336 C122.917,406.336 123.426,406.364 123.925,406.413 C128.046,406.853 131.916,408.363 135.485,410.283 C135.437,410.262 135.389,410.242 135.341,410.222 C131.672,408.543 126.8,406.788 122.462,406.788 C121.711,406.788 120.975,406.841 120.265,406.956 C111.696,408.341 108.672,425.939 112.777,435.84 C112.777,435.84 112.691,435.866 112.538,435.916 C111.891,436.108 111.262,436.353 110.686,436.609 C109.801,436.982 108.757,437.484 107.803,438.101" id="Fill-265" fill="#ECAD30"></path>
        <path d="M107.806,438.103 L107.803,438.101 C108.757,437.484 109.801,436.982 110.686,436.609 C109.13,437.301 107.95,438.074 107.806,438.103 M113.255,436.933 C113.025,436.593 112.816,436.243 112.615,435.893 C112.589,435.901 112.563,435.908 112.538,435.916 C112.691,435.866 112.777,435.84 112.777,435.84 C108.672,425.939 111.696,408.341 120.265,406.956 C120.975,406.841 121.711,406.788 122.462,406.788 C126.8,406.788 131.672,408.543 135.341,410.222 C133.517,409.457 131.656,408.779 129.765,408.263 C127.836,407.703 125.856,407.273 123.865,407.172 C123.578,407.161 123.29,407.154 123.001,407.154 C121.314,407.154 119.615,407.382 118.215,408.193 C116.575,409.153 115.376,410.813 114.445,412.533 C112.916,415.303 112.005,418.393 111.546,421.553 L111.546,421.582 C111.356,423.372 111.215,425.193 111.226,426.993 C111.235,430.383 111.845,433.823 113.365,436.872 L113.255,436.933" id="Fill-266" fill="#ECAD30"></path>
        <path d="M105.58,400.889 C106.547,403.003 102.733,418.195 101.536,421.312 C100.339,424.429 96.147,441.842 94.105,442.595 C92.063,443.347 82.173,443.132 80.776,442.595 C79.379,442.057 80.776,439.086 82.389,438.045 C84.001,437.005 85.921,435.41 85.921,435.41 C85.921,435.41 83.034,408.521 83.571,405.511 C84.108,402.501 102.974,395.192 105.58,400.889" id="Fill-267" fill="#F5BB3D"></path>
        <path d="M96.557,438.188 C96.504,438.188 96.453,438.156 96.44,438.1 C96.554,437.781 96.669,437.45 96.785,437.11 C96.888,437.128 96.992,437.145 97.097,437.162 C96.961,437.478 96.821,437.794 96.677,438.108 C96.651,438.163 96.603,438.188 96.557,438.188" id="Fill-268" fill="#C6C7C2"></path>
        <path d="M97.097,437.162 C96.992,437.145 96.888,437.128 96.785,437.11 C97.741,434.296 98.737,430.842 99.591,427.841 C99.759,427.39 99.931,426.942 100.104,426.494 C100.205,426.882 100.307,427.27 100.41,427.655 C100.345,427.887 100.278,428.119 100.21,428.35 C100.301,428.205 100.388,428.058 100.48,427.913 C100.525,428.08 100.569,428.244 100.615,428.411 C100.339,428.899 100.048,429.381 99.748,429.856 L99.709,429.985 C98.903,432.408 98.105,434.818 97.097,437.162 M101.99,425.838 C101.965,425.74 101.94,425.643 101.915,425.545 C101.972,425.407 102.021,425.267 102.062,425.123 C102.075,425.08 102.109,425.062 102.144,425.062 C102.198,425.062 102.256,425.107 102.237,425.175 C102.174,425.405 102.088,425.624 101.99,425.838 M101.475,423.78 C101.433,423.609 101.39,423.434 101.348,423.261 C101.549,422.717 101.744,422.17 101.927,421.621 C101.941,421.578 101.976,421.56 102.011,421.56 C102.067,421.56 102.123,421.605 102.102,421.671 C101.879,422.37 101.673,423.074 101.475,423.78" id="Fill-269" fill="#ECAD30"></path>
        <path d="M96.44,438.1 C96.436,438.082 96.436,438.061 96.441,438.039 C97.075,435.219 98.002,432.496 98.914,429.749 C99.126,429.109 99.354,428.473 99.591,427.841 C98.737,430.842 97.741,434.296 96.785,437.11 C96.669,437.45 96.554,437.781 96.44,438.1" id="Fill-270" fill="#ECAD30"></path>
        <path d="M84.746,430.23 C84.671,429.799 84.601,429.368 84.535,428.936 C84.811,429.27 85.084,429.596 85.352,429.913 C85.36,429.995 85.368,430.076 85.377,430.157 C85.167,430.181 84.954,430.206 84.746,430.23" id="Fill-271" fill="#DBDCD6"></path>
        <path d="M85.893,435.144 C85.849,435.127 85.813,435.094 85.799,435.045 C85.365,433.455 85.025,431.847 84.746,430.23 C84.954,430.206 85.167,430.181 85.377,430.157 C85.627,432.632 85.823,434.482 85.893,435.144" id="Fill-272" fill="#C6C7C2"></path>
        <path d="M85.352,429.913 C85.084,429.596 84.811,429.27 84.535,428.936 C84.209,426.818 83.971,424.686 83.747,422.562 C83.528,420.486 83.396,418.402 83.296,416.319 C83.191,414.158 83.068,411.967 83.193,409.806 L83.315,409.794 C83.603,411.833 83.727,413.895 83.933,415.942 C84.099,417.597 84.293,419.25 84.482,420.903 C84.777,424.141 85.092,427.344 85.352,429.913" id="Fill-273" fill="#ECAD30"></path>
        <path d="M85.978,435.16 C85.949,435.16 85.92,435.155 85.893,435.144 C85.823,434.482 85.627,432.632 85.377,430.157 C85.368,430.076 85.36,429.995 85.352,429.913 C85.092,427.344 84.777,424.141 84.482,420.903 C84.536,421.376 84.589,421.849 84.641,422.322 C85.107,426.555 85.816,430.769 86.153,435.01 C86.161,435.108 86.07,435.16 85.978,435.16" id="Fill-274" fill="#ECAD30"></path>
        <path d="M84.459,442.871 C84.418,442.871 84.378,442.847 84.366,442.796 C84.242,442.275 84.305,441.732 84.413,441.212 C84.521,440.687 84.741,440.161 85.058,439.725 C85.379,439.286 85.762,438.898 86.197,438.572 C86.602,438.268 87.108,437.977 87.614,437.884 L87.679,438.002 C87.503,438.167 87.302,438.304 87.129,438.476 C86.955,438.65 86.776,438.823 86.608,439.003 C86.281,439.354 86.005,439.748 85.761,440.16 C85.516,440.577 85.279,440.996 85.067,441.431 C84.854,441.871 84.728,442.343 84.561,442.801 C84.544,442.846 84.501,442.871 84.459,442.871" id="Fill-275" fill="#ECAD30"></path>
        <path d="M81.645,442.668 C81.017,441.772 81.009,440.582 81.521,439.628 C82.042,438.658 82.95,437.966 83.937,437.521 L84.011,437.622 C83.282,438.254 82.562,438.932 82.096,439.789 C81.632,440.64 81.39,441.701 81.714,442.64 L81.645,442.668" id="Fill-276" fill="#ECAD30"></path>
        <path d="M84.924,325.409 C85.404,323.656 81.029,317.451 79.359,315.364 C77.69,313.277 68.495,310.145 65.56,311.751 C64.407,312.382 62.265,316.797 59.374,320.634 C54.902,326.57 49.673,332.798 51.573,334.474 C56.183,338.542 66.685,332.126 70.093,329.97 C73.502,327.814 76.619,325.193 77.449,325.285 C78.544,325.407 80.853,327.142 81.773,327.245 C83.964,327.488 84.924,325.409 84.924,325.409" id="Fill-277" fill="#F5BB3D"></path>
        <path d="M55.567,335.797 C54.027,335.797 52.641,335.417 51.573,334.474 C51.298,334.232 51.173,333.895 51.1719985,333.477 C51.169,331.004 55.548,325.712 59.374,320.634 C62.265,316.797 64.407,312.382 65.56,311.751 C66.123,311.443 66.917,311.309 67.845,311.309 C71.749,311.309 78.011,313.678 79.359,315.364 C79.662,315.742 80.054,316.256 80.489,316.853 C77.483,317.515 74.885,318.536 73.121,319.943 C71.348,321.357 67.652,326.655 64.11,333.339 C61.357,334.661 58.23,335.797 55.567,335.797" id="Fill-278" fill="#ECAD30"></path>
        <path d="M106.101,319.194 C116.828,325.608 121.59,342.676 121.879,345.4 C122.116,347.625 127.231,355.497 126.317,363.967 C125.73,369.416 115.951,376.645 107.99,376.573 C107.311,376.566 104.284,377.529 100.189,378.491 C95.451,379.604 89.283,380.718 83.671,380.33 C73.211,379.609 65.276,372.185 64.968,371.554 C64.66,370.923 56.178,369.699 55.645,360.952 C54.795,346.987 69.045,323.195 73.121,319.943 C79.869,314.561 98.812,314.836 106.101,319.194" id="Fill-279" fill="#F5BB3D"></path>
        <path d="M101.05,326.555 C100.843,324.656 106.415,318.945 108.494,317.056 C110.573,315.167 120.636,313.446 123.415,315.601 C124.506,316.447 125.995,321.385 128.357,325.846 C132.011,332.749 136.402,340.081 134.152,341.505 C128.693,344.961 118.861,336.557 115.682,333.753 C112.504,330.95 109.705,327.711 108.828,327.669 C108.248,327.641 107.283,327.984 106.343,328.326 C105.409,328.667 104.5,329.007 104.015,328.984 C101.701,328.872 101.05,326.555 101.05,326.555" id="Fill-280" fill="#F5BB3D"></path>
        <path d="M131.123,342.326 C127.299,342.326 122.622,339.323 119.232,336.703 C117.738,335.549 116.493,334.469 115.682,333.753 C112.504,330.95 109.705,327.711 108.828,327.669 C108.805,327.668 108.782,327.668 108.758,327.668 C108.172,327.668 107.246,327.997 106.343,328.326 C105.44,328.656 104.559,328.985 104.064,328.985 C104.047,328.985 104.031,328.985 104.015,328.984 C101.701,328.872 101.05,326.555 101.05,326.555 C101.046,326.52 101.045,326.483 101.045,326.446 C101.049,324.445 106.454,318.91 108.494,317.056 C109.887,315.791 114.863,314.601 118.831,314.601 C120.787,314.601 122.498,314.889 123.415,315.601 C124.506,316.447 125.995,321.385 128.357,325.846 C131.319,331.442 134.765,337.319 134.766004,340.103 C134.767,340.754 134.579,341.236 134.152,341.505 C133.246,342.079 132.219,342.326 131.123,342.326" id="Fill-281" fill="#ECAD30"></path>
        <path d="M83.109,377.942 C82.005,377.942 80.878,377.85 79.742,377.65 C73.17,376.493 68.914,373.424 67.217,370.08 C69.345,366.461 71.754,363.857 74.332,362.457 C75.006,363.069 75.819,363.675 76.391,363.675 C76.513,363.675 76.624,363.647 76.721,363.586 C77.093,363.352 77.67,362.399 78.251,361.288 C78.423,361.278 78.595,361.272 78.768,361.272 C79.069,361.272 79.373,361.288 79.677,361.321 C80.134,361.37 80.572,361.475 80.994,361.634 C81.393,363.247 81.982,364.682 82.817,364.771 C82.883,364.778 82.951,364.781 83.019,364.781 C83.437,364.781 83.905,364.657 84.384,364.46 C86.391,367.231 87.903,371.64 89.232,376.972 C87.377,377.58 85.292,377.942 83.109,377.942 M91.101,376.244 C89.762,370.972 88.211,366.526 86.118,363.51 C87.232,362.775 88.105,361.994 88.105,361.994 L80.219,356.52 L74.876,360.035 C71.815,361.249 68.957,363.878 66.448,367.691 C66.402,367.36 66.38,367.031 66.384,366.705 C66.424,363.115 69.809,360.006 70.183,359.059 C70.555,358.115 75.418,350.53 81.385,350.53 C81.407,350.53 81.428,350.531 81.45,350.531 C88.032,350.59 91.026,357.638 91.821,359.474 C92.616,361.31 96.673,365.515 96.78,369.905 C96.836,372.213 94.555,374.664 91.101,376.244 M80.56,359.435 C80.341,359.391 80.117,359.357 79.89,359.332 C79.672,359.309 79.454,359.292 79.237,359.282 C79.822,358.031 80.261,356.998 80.261,356.998 C80.261,356.998 80.347,358.079 80.56,359.435" id="Fill-282" fill="#ECAD30"></path>
        <path d="M97.628,376.713 C98.733,375.976 99.596,374.999 99.976,373.845 C100.371,372.699 100.347,371.436 100.14,370.205 C99.95,368.965 99.553,367.745 99.123,366.531 C98.669,365.325 98.177,364.117 97.628,362.913 C98.504,363.91 99.244,365.026 99.836,366.222 C100.432,367.417 100.897,368.694 101.127,370.044 C101.335,371.383 101.323,372.852 100.697,374.143 C100.397,374.784 99.948,375.347 99.419,375.79 C98.865,376.205 98.263,376.521 97.628,376.713" id="Fill-283" fill="#ECAD30"></path>
        <path d="M64.486,369.434 C63.863,368.789 63.359,367.936 63.242,366.969 C63.118,366.01 63.316,365.032 63.687,364.162 C64.07,363.291 64.631,362.534 65.275,361.881 C65.921,361.231 66.649,360.665 67.479,360.283 C66.908,360.989 66.369,361.678 65.871,362.38 C65.387,363.09 64.916,363.8 64.601,364.565 C64.266,365.319 64.067,366.108 64.021,366.923 C63.986,367.748 64.212,368.558 64.486,369.434" id="Fill-284" fill="#ECAD30"></path>
        <path d="M170.29,454.459 C159.514,454.459 147.626,454.277 135.679,454.054 C129.519,453.94 124.653,453.849 121.616,453.849 C106.091,453.849 101.623,433.893 97.302,414.594 C96.699,411.905 96.096,409.212 95.464,406.568 C94.231,401.407 93.213,396.189 92.228,391.143 C89.183,375.537 86.553,362.058 79.677,361.321 C70.591,360.354 62.5,373.943 59.546,395.154 L57.565,394.878 C60.679,372.521 69.644,358.222 79.89,359.332 C88.233,360.227 90.994,374.376 94.191,390.76 C95.172,395.786 96.186,400.983 97.41,406.103 C98.044,408.756 98.649,411.458 99.254,414.158 C103.594,433.54 107.693,451.849 121.616,451.849 C124.672,451.849 129.546,451.94 135.716,452.054 C149.234,452.307 167.747,452.651 183.42,452.343 C208.837,451.846 211.845,449.839 212.162,449.236 C212.147,445.075 185.32,440.068 175.221,438.183 C165.012,436.278 164.613,436.203 164.729,434.95 C164.833,433.826 166.082,433.826 167.973,433.826 L209.916,433.826 C223.071,433.826 227.311,414.9 229.844,403.592 C230.57,400.348 231.145,397.785 231.778,396.464 C234.718,390.34 242.154,391.235 242.469,391.275 L242.211,393.257 C241.952,393.227 235.889,392.519 233.581,397.33 C233.046,398.445 232.466,401.033 231.795,404.03 C229.131,415.921 224.673,435.826 209.916,435.826 L173.497,435.826 C174.178,435.954 174.88,436.084 175.587,436.216 C200.009,440.775 214.148,444.378 214.148,449.308 C214.148,449.67 214.036,450.211 213.501,450.735 C210.525,453.657 192.856,454.459 170.29,454.459" id="Fill-285" fill="#132529"></path>
        <polyline id="Fill-286" fill="#334F55" points="64.466 401.057 52.205 400.323 52.646 392.97 64.906 393.705 64.466 401.057"></polyline>
        <polyline id="Fill-287" fill="#253C40" points="62.601 393.566 54.952 393.108 55.091 390.776 62.74 391.234 62.601 393.566"></polyline>
        <polyline id="Fill-288" fill="#F5BB3D" points="55.93 406.177 54.488 406.09 54.824 400.48 56.266 400.566 55.93 406.177"></polyline>
        <polyline id="Fill-289" fill="#F5BB3D" points="61.479 406.509 60.037 406.422 60.373 400.812 61.816 400.899 61.479 406.509"></polyline>
        <polygon id="Fill-290" fill="#334F55" points="246.2 398.408 251.566 398.408 251.566 386.125 246.2 386.125"></polygon>
        <polygon id="Fill-291" fill="#253C40" points="241.864 396.098 246.2 396.098 246.2 388.435 241.864 388.435"></polygon>
        <path d="M73.1,361.204 C73.1,361.204 75.71,364.223 76.721,363.586 C77.732,362.949 80.261,356.998 80.261,356.998 C80.261,356.998 80.864,364.563 82.817,364.771 C84.771,364.979 88.105,361.994 88.105,361.994 L80.219,356.52 L73.1,361.204" id="Fill-292" fill="#F5BB3D"></path>
        <path d="M83.019,364.781 C82.951,364.781 82.883,364.778 82.817,364.771 C80.864,364.563 80.261,356.998 80.261,356.998 C80.261,356.998 77.732,362.949 76.721,363.586 C76.624,363.647 76.513,363.675 76.391,363.675 C75.819,363.675 75.006,363.069 74.332,362.457 C73.644,361.833 73.1,361.204 73.1,361.204 L80.219,356.52 L88.105,361.994 C88.105,361.994 87.232,362.775 86.118,363.51 C85.573,363.87 84.97,364.219 84.384,364.46 C83.905,364.657 83.437,364.781 83.019,364.781" id="Fill-293" fill="#ECAD30"></path>
        <path d="M111.797,351.814 C111.797,349.306 111.641,346.841 111.152,344.497 C110.883,343.333 110.569,342.191 110.057,341.163 C109.572,340.129 108.94,339.185 108.116,338.467 C107.92,338.277 107.702,338.114 107.485,337.949 C107.26,337.791 107.008,337.658 106.773,337.508 L106.417,337.285 L106.033,337.115 C105.773,337.008 105.528,336.866 105.259,336.784 C104.205,336.367 103.052,336.24 101.886,336.18 C101.77,336.177 101.655,336.176 101.539,336.176 C99.3,336.176 97.002,336.698 94.76,337.495 C96.756,335.961 99.209,334.938 101.837,334.707 C102.173,334.676 102.513,334.66 102.854,334.66 C103.843,334.66 104.846,334.795 105.817,335.084 C106.15,335.159 106.455,335.322 106.774,335.44 L107.249,335.634 L107.694,335.886 C107.988,336.062 108.288,336.222 108.573,336.417 C108.854,336.625 109.136,336.831 109.388,337.074 C109.901,337.546 110.352,338.08 110.729,338.653 C111.114,339.22 111.442,339.82 111.688,340.445 C112.186,341.692 112.489,342.982 112.603,344.272 C112.846,346.847 112.57,349.415 111.797,351.814" id="Fill-294" fill="#ECAD30"></path>
        <path d="M63.021,346.706 C62.437,344.63 62.321,342.417 62.683,340.222 C62.868,339.125 63.194,338.026 63.734,336.996 C64.272,335.97 65.025,335.001 65.998,334.285 C66.473,333.909 67.005,333.627 67.556,333.378 C68.144,333.124 68.759,332.995 69.358,332.938 C69.587,332.919 69.814,332.91 70.039,332.91 C70.994,332.91 71.91,333.073 72.779,333.321 C73.316,333.475 73.837,333.66 74.347,333.862 C74.853,334.079 75.345,334.315 75.827,334.566 C76.779,335.09 77.699,335.665 78.515,336.379 C76.469,335.72 74.453,335.119 72.458,334.813 C71.846,334.731 71.238,334.677 70.649,334.677 C70.279,334.677 69.916,334.698 69.565,334.748 C69.112,334.811 68.686,334.932 68.301,335.1 C67.894,335.296 67.484,335.515 67.122,335.791 C65.636,336.869 64.676,338.632 64.072,340.553 C63.477,342.489 63.18,344.569 63.021,346.706" id="Fill-295" fill="#ECAD30"></path>
        <path d="M95.512,348.672 C95.543,348.558 95.764,348.827 95.755,348.95 C95.518,351.962 95.804,355.454 98.754,356.585 C98.846,356.621 98.829,356.772 98.719,356.753 C95.086,356.125 94.758,351.488 95.512,348.672" id="Fill-296" fill="#132529"></path>
        <path d="M98.604,345.65 C103.942,345.512 103.935,355.264 98.989,355.391 C94.123,355.516 94.13,345.764 98.604,345.65" id="Fill-297" fill="#132529"></path>
        <path d="M74.882,346.306 C74.867,346.189 74.61,346.423 74.602,346.547 C74.417,349.564 73.648,352.981 70.568,353.691 C70.473,353.712 70.468,353.865 70.58,353.861 C74.264,353.746 75.235,349.2 74.882,346.306" id="Fill-298" fill="#132529"></path>
        <path d="M72.241,342.882 C66.974,342.002 65.622,351.66 70.502,352.475 C75.303,353.277 76.656,343.62 72.241,342.882" id="Fill-299" fill="#132529"></path>
        <path d="M80.062,356.724 C81.007,357.033 87.596,354.948 87.095,352.952 C86.552,350.791 77.288,350.283 76.124,351.685 C74.96,353.088 79.07,356.401 80.062,356.724" id="Fill-300" fill="#132529"></path>
        <path d="M88.275,361.887 C87.215,362.656 86.126,363.41 84.923,363.982 C84.337,364.262 83.668,364.513 83.105,364.501 C82.728,364.577 82.409,364.058 82.192,363.573 C81.756,362.573 81.546,361.468 81.353,360.379 C81.158,359.288 81.043,358.176 80.93,357.081 L80.618,354.04 L79.707,356.995 C79.427,357.903 79.098,358.816 78.768,359.718 C78.421,360.617 78.057,361.517 77.59,362.36 C77.473,362.57 77.344,362.774 77.201,362.962 C77.063,363.149 76.902,363.337 76.741,363.438 C76.629,363.526 76.424,363.531 76.186,363.497 C75.953,363.432 75.702,363.34 75.472,363.201 C74.542,362.648 73.791,361.856 73.094,361.071 C73.58,361.952 74.164,362.815 75.101,363.536 C75.332,363.718 75.626,363.872 75.966,363.99 C76.156,364.027 76.34,364.084 76.558,364.067 C76.752,364.081 77.033,364.012 77.194,363.921 C77.538,363.741 77.738,363.529 77.934,363.32 C78.123,363.107 78.285,362.891 78.434,362.672 C79.032,361.799 79.464,360.894 79.865,359.984 C80.272,359.073 80.603,358.154 80.914,357.217 L79.691,357.13 C79.766,358.267 79.939,359.382 80.151,360.505 C80.256,361.067 80.402,361.625 80.57,362.183 C80.746,362.74 80.927,363.299 81.234,363.85 C81.39,364.125 81.556,364.401 81.823,364.67 C81.964,364.803 82.121,364.939 82.362,365.046 C82.481,365.101 82.614,365.144 82.772,365.161 C82.934,365.189 83.015,365.163 83.14,365.165 C84.054,365.093 84.694,364.731 85.298,364.39 C86.473,363.665 87.437,362.808 88.275,361.887" id="Fill-301" fill="#132529"></path>
        <path d="M38.049,396.497 C40.046,396.336 42.027,396.404 44.005,396.527 C45.981,396.671 47.953,396.873 49.91,397.304 C47.913,397.465 45.932,397.398 43.954,397.274 C41.978,397.127 40.006,396.925 38.049,396.497" id="Fill-302" fill="#132529"></path>
        <path d="M66.833,402.822 C68.732,403.45 70.53,404.28 72.303,405.16 C74.065,406.061 75.802,407.012 77.436,408.167 C75.535,407.541 73.737,406.711 71.965,405.83 C70.204,404.927 68.467,403.976 66.833,402.822" id="Fill-303" fill="#132529"></path>
        <path d="M44.398,416.572 C45.353,414.81 46.489,413.186 47.671,411.595 C48.87,410.018 50.114,408.475 51.542,407.07 C50.589,408.831 49.452,410.456 48.27,412.045 C47.069,413.623 45.824,415.165 44.398,416.572" id="Fill-304" fill="#132529"></path>
        <path d="M33.161,384.667 C34.703,385.16 36.214,385.727 37.719,386.306 C39.229,386.877 40.714,387.502 42.2,388.127 C43.678,388.77 45.156,389.413 46.612,390.11 C48.07,390.799 49.523,391.499 50.944,392.277 C49.401,391.787 47.891,391.218 46.385,390.64 C44.876,390.068 43.39,389.443 41.905,388.817 C40.427,388.174 38.948,387.531 37.494,386.833 C36.035,386.145 34.582,385.444 33.161,384.667" id="Fill-305" fill="#132529"></path>
        <path d="M68.275,393.537 C69.671,392.799 71.134,392.28 72.613,391.813 C74.098,391.368 75.601,390.977 77.17,390.805 C75.774,391.543 74.312,392.064 72.833,392.529 C71.347,392.973 69.844,393.364 68.275,393.537" id="Fill-306" fill="#132529"></path>
        <path d="M53.9,388.472 C53.082,387.174 52.337,385.839 51.604,384.498 C50.862,383.163 50.173,381.799 49.485,380.437 C48.812,379.066 48.142,377.694 47.522,376.296 C46.897,374.903 46.281,373.503 45.741,372.067 C46.561,373.365 47.305,374.7 48.039,376.04 C48.78,377.376 49.469,378.74 50.156,380.103 C50.828,381.474 51.499,382.845 52.118,384.243 C52.744,385.637 53.359,387.037 53.9,388.472" id="Fill-307" fill="#132529"></path>
        <path d="M74.15,420.105 C73.257,419.082 72.432,418.014 71.618,416.938 C70.796,415.868 70.023,414.763 69.25,413.659 C68.492,412.544 67.735,411.429 67.026,410.281 C66.311,409.137 65.604,407.987 64.968,406.789 C65.861,407.809 66.686,408.878 67.501,409.954 C68.322,411.025 69.095,412.128 69.867,413.234 C70.625,414.349 71.382,415.463 72.091,416.613 C72.806,417.756 73.512,418.907 74.15,420.105" id="Fill-308" fill="#132529"></path>
        <polyline id="Fill-309" fill="#959894" points="343.09 169.463 260.431 169.463 254.03 113.323 336.69 113.323 343.09 169.463"></polyline>
        <polyline id="Fill-310" fill="#FFFFFE" points="338.586 165.698 264.076 165.698 258.535 117.089 333.045 117.089 338.586 165.698"></polyline>
        <polyline id="Fill-311" fill="#C6E6F7" points="292.569 142.666 291.378 144.081 279.656 133.962 280.847 132.547 292.569 142.666"></polyline>
        <polyline id="Fill-312" fill="#C6E6F7" points="289.551 132.547 291.19 133.962 282.674 144.081 281.034 142.666 289.551 132.547"></polyline>
        <polyline id="Fill-313" fill="#C6E6F7" points="317.629 142.666 316.438 144.081 304.716 133.962 305.906 132.547 317.629 142.666"></polyline>
        <polyline id="Fill-314" fill="#C6E6F7" points="314.611 132.547 316.25 133.962 307.733 144.081 306.095 142.666 314.611 132.547"></polyline>
        <polyline id="Fill-315" fill="#C6E6F7" points="278.158 152.393 277.841 150.392 323.27 150.392 323.586 152.393 278.158 152.393"></polyline>
        <polygon id="Fill-316" fill="#959894" points="261.009 169.463 367.347 169.463 367.347 165.698 261.009 165.698"></polygon>
        <polygon id="Fill-317" fill="#B9BAB6" points="284.104 169.463 376.324 169.463 376.324 165.698 284.104 165.698"></polygon>
        <polyline id="Fill-318" fill="#132529" points="333.314 119.448 333.045 117.089 258.535 117.089 258.804 119.448 333.314 119.448"></polyline>
        <path d="M264.807,118.269 C264.842,118.592 265.107,118.854 265.399,118.854 C265.69,118.854 265.897,118.592 265.862,118.269 C265.826,117.945 265.561,117.683 265.27,117.683 C264.978,117.683 264.771,117.945 264.807,118.269" id="Fill-319" fill="#B9BAB6"></path>
        <path d="M262.651,118.269 C262.687,118.592 262.952,118.854 263.243,118.854 C263.535,118.854 263.742,118.592 263.707,118.269 C263.671,117.945 263.405,117.683 263.114,117.683 C262.822,117.683 262.615,117.945 262.651,118.269" id="Fill-320" fill="#FFFFFE"></path>
        <path d="M260.495,118.269 C260.531,118.592 260.797,118.854 261.088,118.854 C261.38,118.854 261.587,118.592 261.551,118.269 C261.516,117.945 261.25,117.683 260.959,117.683 C260.667,117.683 260.46,117.945 260.495,118.269" id="Fill-321" fill="#F5BB3D"></path>
    </g>
</svg>