<?xml version="1.0" encoding="UTF-8"?>
<svg width="685px" height="168px" viewBox="0 0 685 168" version="1.1" xmlns="http://www.w3.org/2000/svg" xmlns:xlink="http://www.w3.org/1999/xlink">
    <!-- Generator: Sketch 61.2 (89653) - https://sketch.com -->
    <title>logo</title>
    <desc>Created with Sketch.</desc>
    <g id="Page-1" stroke="none" stroke-width="1" fill="none" fill-rule="evenodd">
        <g id="logo" transform="translate(-15.000000, 0.000000)" fill-rule="nonzero">
            <g id="Group" transform="translate(65.199659, 86.847285) rotate(-8.000000) translate(-65.199659, -86.847285) translate(11.199659, 6.847285)">
                <polygon id="Path" stroke="#006494" fill="#006494" points="4.06 89.84 3.832 89.956 9.493 51.034 9.488 51.037 9.508 51.026 9.492 51.007 3.398 89.942 9.104 96.637 16.806 92.676 21.441 90.226 21.48 90.273 36.036 82.789 30.63 76.316 4.043 89.957"></polygon>
                <polygon id="Path" stroke="#1B98E0" fill="#1B98E0" points="9.673 51.035 9.673 51.037 107.282 0.916 107.3 0.799 9.508 51.026 9.65 51.197"></polygon>
                <polygon id="Path" stroke="#1B98E0" fill="#1B98E0" points="9.493 51.034 3.832 89.956 4.06 89.84 9.65 51.197 9.508 51.026 9.488 51.037"></polygon>
                <polygon id="Path" stroke="#006494" fill="#006494" points="19.595 133.645 46.383 119.813 42.715 115.463 15.853 129.299"></polygon>
                <polygon id="Path" stroke="#006494" fill="#006494" points="21.441 90.226 16.806 92.676 21.48 90.273"></polygon>
                <polygon id="Combined-Shape" stroke="#1B98E0" fill="#1B98E0" points="107.509 0.799 101.693 39.86 101.693 39.857 30.615 76.298 30.63 76.316 4.043 89.957 4.06 89.84 9.633 51.306 9.542 51.197 9.458 51.037 107.162 0.916 107.152 0.982 107.276 0.918 107.282 0.885"></polygon>
                <polygon id="Combined-Shape" stroke="#1B98E0" fill="#1B98E0" points="92.642 95.926 86.806 134.96 86.799 135.005 40.207 159.201 19.564 133.659 19.595 133.645 46.383 119.813 50.593 124.802 46.383 119.813"></polygon>
                <polygon id="Combined-Shape" stroke="#1B98E0" fill="#1B98E0" points="12.695 100.851 12.694 100.85 1.326 106.71 1.176 106.788 2.009 100.285 9.104 96.637 16.806 92.676 21.48 90.273 36.036 82.789 36.037 82.789 99.483 50.169 93.879 89.107 42.715 115.463 15.853 129.299 15.852 129.298 15.838 129.306 0.82 112.374 1.09 112.236 1.09 112.236 15.91 104.623 22.2646343 101.35882 28.237 98.291 30.149 97.309 31.033 91.4 25.035 94.491"></polygon>
            </g>
            <g id="Group" transform="translate(139.000000, 28.000000)" fill="#FFFFFF">
                <polygon id="Path" points="0.909 0.206 22.3785 0.206 22.3785 107.98775 0.909 107.98775"></polygon>
                <polygon id="Path" points="43.99425 107.98775 43.99425 0.278 51.174 0.278 118.674 67.778 118.674 0.278 140.2155 0.278 140.2155 107.98775 132.31575 107.98775 65.5335 41.20775 65.5335 107.98775"></polygon>
                <polygon id="Path" points="162.47475 107.98775 162.47475 0.278 238.23225 0.278 238.23225 20.384 184.01625 20.384 184.01625 43.36325 224.01225 43.36325 224.01225 63.39725 184.01625 63.39725 184.01625 107.98775"></polygon>
                <path d="M263.86425,92.51675 C253.57275,82.2005 248.427,69.407 248.427,54.134 C248.427,38.81375 253.57275,26.01125 263.86425,15.7175 C274.15575,5.426 286.96275,0.28025 302.28075,0.28025 C317.59875,0.28025 330.4035,5.426 340.69725,15.7175 C350.98875,26.01125 356.1345,38.816 356.1345,54.134 C356.1345,69.452 350.98875,82.259 340.69725,92.5505 C330.4035,102.842 317.59875,107.98775 302.28075,107.98775 C286.96275,107.98775 274.158,102.83075 263.86425,92.51675 Z M302.35275,87.88175 C311.87925,87.88175 319.635,84.65075 325.62,78.18875 C331.60275,71.7245 334.59525,63.7055 334.59525,54.134 C334.59525,44.558 331.60275,36.54125 325.62,30.07925 C319.635,23.61725 311.832,20.384 302.21325,20.384 C292.6845,20.384 284.92875,23.61725 278.946,30.07925 C272.961,36.54125 269.97075,44.56025 269.97075,54.134 C269.97075,63.70775 272.96325,71.7245 278.946,78.18875 C284.92875,84.65075 292.734,87.88175 302.35275,87.88175 Z" id="Shape"></path>
                <polygon id="Path" points="371.862 107.98775 371.862 0.35225 450.99225 0.28025 450.99225 20.38625 393.4035 20.38625 393.4035 43.3655 436.56075 43.3655 436.56075 63.3995 393.4035 63.3995 393.4035 87.88625 450.84825 87.88625 450.84825 107.99225 371.862 107.99225"></polygon>
                <polygon id="Path" points="560.57175 0.278 560.57175 20.384 524.6685 20.384 524.6685 107.99 503.127 107.99 503.127 20.384 467.22375 20.384 467.22375 0.278"></polygon>
            </g>
        </g>
    </g>
</svg>