<?xml version="1.0" encoding="UTF-8"?>
<svg width="499px" height="98px" viewBox="0 0 499 98" version="1.1" xmlns="http://www.w3.org/2000/svg" xmlns:xlink="http://www.w3.org/1999/xlink">
    <!-- Generator: Sketch 61.2 (89653) - https://sketch.com -->
    <title>Group 2</title>
    <desc>Created with Sketch.</desc>
    <g id="Page-1" stroke="none" stroke-width="1" fill="none" fill-rule="evenodd">
        <g id="Group-2" fill-rule="nonzero">
            <g id="logo">
                <polygon id="Path" fill="#006494" points="2.288 54.843 7.867 61.39 19.256 55.521 18.647 59.585 10.08 63.985 16.492 71.507 32.421 63.284 5.827 31.441 2.146 54.964 2.146 54.964"></polygon>
                <g id="Group" transform="translate(1.000000, 55.000000)" fill="#006494">
                    <polygon id="Path" points="14.212 2.862 12.114 0.374 0.632 6.444 0.079 10.146"></polygon>
                    <path d="M13.66,29.405 L29.661,21.187 L16.414,5.474 L0.189,13.81 C4.697,18.993 9.187,24.192 13.66,29.405 Z" id="Path"></path>
                </g>
                <polygon id="middle" fill="#1B98E0" points="1.471 61.399 1.02 64.917 19.256 55.521 18.647 59.585 0.872 68.714 9.784 78.761 57.209 54.333 60.564 31.017"></polygon>
                <g id="Bottom" transform="translate(11.000000, 58.000000)" fill="#1B98E0">
                    <path d="M42.059,24.474 L13.616,39.243 L1.015,23.651 L45.625,0.616 C44.436,8.569 43.247,16.521 42.059,24.474 Z" id="Path"></path>
                    <path d="M13.566,39.481 L0.725,23.591 C15.771,15.821 30.818,8.052 45.865,0.282 L42.234,24.569 C32.856,29.464 22.961,34.61 13.566,39.481 Z M1.306,23.714 L13.666,39.007 L41.888,24.351 L45.386,0.952 L1.306,23.714 Z" id="Shape"></path>
                </g>
                <g id="top" transform="translate(2.000000, 0.000000)" fill="#1B98E0">
                    <path d="M63.813,0.211 L60.194,24.418 L60.011,24.391 L60.095,24.555 L0.172,55.306 L3.681,31.186 L3.813,31.205 L3.822,31.145 L3.777,31.047 L3.841,31.014 L3.866,30.846 L3.863,30.846 L55.06,4.706 L63.813,0.211 Z" id="Top"></path>
                </g>
            </g>
            <g id="Group-3" transform="translate(86.000000, 8.000000)" fill="#FFFFFF">
                <g id="Group">
                    <path d="M0,1.42108547e-14 L15.9768,1.42108547e-14 L15.9768,80.20944 L0,80.20944 L0,1.42108547e-14 Z M32.0616,80.20944 L32.0616,0.05328 L37.40544,0.05328 L87.63696,50.2848 L87.63696,0.05328 L103.66848,0.05328 L103.66848,80.20944 L97.7904,80.20944 L48.09312,30.5136 L48.09312,80.20944 L32.0616,80.20944 L32.0616,80.20944 Z M120.23424,80.20944 L120.23424,0.05328 L176.61024,0.05328 L176.61024,15.01632 L136.26576,15.01632 L136.26576,32.11632 L166.03056,32.11632 L166.03056,47.02464 L136.26576,47.02464 L136.26576,80.20944 L120.23424,80.20944 L120.23424,80.20944 Z M191.36736,68.6952 C183.708,61.01712 179.87904,51.49728 179.87904,40.13136 C179.87904,28.73232 183.708,19.2024 191.36736,11.54304 C199.02816,3.88368 208.55664,0.05328 219.95712,0.05328 C231.3576,0.05328 240.88608,3.88368 248.54544,11.54304 C256.20624,19.2024 260.0352,28.73232 260.0352,40.13136 C260.0352,51.53328 256.20624,61.06176 248.54544,68.72112 C240.88608,76.38192 231.3576,80.20944 219.95712,80.20944 C208.55664,80.20944 199.02816,76.37328 191.36736,68.6952 L191.36736,68.6952 Z M220.0104,65.24784 C227.09952,65.24784 232.87104,62.84304 237.32352,58.03344 C241.77744,53.22384 244.00368,47.25792 244.00368,40.13136 C244.00368,33.00768 241.77744,27.03888 237.32352,22.23072 C232.87104,17.42112 227.06352,15.01632 219.90384,15.01632 C212.81472,15.01632 207.0432,17.42112 202.58928,22.23072 C198.13536,27.03888 195.91056,33.00768 195.91056,40.13136 C195.91056,47.25792 198.13536,53.22384 202.58928,58.03344 C207.0432,62.84304 212.84928,65.24784 220.0104,65.24784 L220.0104,65.24784 Z M271.73808,80.20944 L271.73808,0.10656 L330.62544,0.05328 L330.62544,15.01632 L287.7696,15.01632 L287.7696,32.11632 L319.88448,32.11632 L319.88448,47.02464 L287.7696,47.02464 L287.7696,65.24784 L330.51888,65.24784 L330.51888,80.20944 L271.73808,80.20944 Z M412.1712,0.05328 L412.1712,15.01632 L385.452,15.01632 L385.452,80.20944 L369.42192,80.20944 L369.42192,15.01632 L342.70272,15.01632 L342.70272,0.05328 L412.1712,0.05328 Z" id="Shape"></path>
                </g>
            </g>
        </g>
    </g>
</svg>