<?xml version="1.0" encoding="UTF-8"?>
<svg width="66px" height="98px" viewBox="0 0 66 98" version="1.1" xmlns="http://www.w3.org/2000/svg" xmlns:xlink="http://www.w3.org/1999/xlink">
    <!-- Generator: Sketch 61.2 (89653) - https://sketch.com -->
    <title>logo</title>
    <desc>Created with Sketch.</desc>
    <g id="Page-1" stroke="none" stroke-width="1" fill="none" fill-rule="evenodd">
        <g id="Group-2" fill-rule="nonzero">
            <g id="logo">
                <polygon id="Path" fill="#006494" points="2.288 54.843 7.867 61.39 19.256 55.521 18.647 59.585 10.08 63.985 16.492 71.507 32.421 63.284 5.827 31.441 2.146 54.964 2.146 54.964"></polygon>
                <g id="Group" transform="translate(1.000000, 55.000000)" fill="#006494">
                    <polygon id="Path" points="14.212 2.862 12.114 0.374 0.632 6.444 0.079 10.146"></polygon>
                    <path d="M13.66,29.405 L29.661,21.187 L16.414,5.474 L0.189,13.81 C4.697,18.993 9.187,24.192 13.66,29.405 Z" id="Path"></path>
                </g>
                <polygon id="middle" fill="#1B98E0" points="1.471 61.399 1.02 64.917 19.256 55.521 18.647 59.585 0.872 68.714 9.784 78.761 57.209 54.333 60.564 31.017"></polygon>
                <g id="Bottom" transform="translate(11.000000, 58.000000)" fill="#1B98E0">
                    <path d="M42.059,24.474 L13.616,39.243 L1.015,23.651 L45.625,0.616 C44.436,8.569 43.247,16.521 42.059,24.474 Z" id="Path"></path>
                    <path d="M13.566,39.481 L0.725,23.591 C15.771,15.821 30.818,8.052 45.865,0.282 L42.234,24.569 C32.856,29.464 22.961,34.61 13.566,39.481 Z M1.306,23.714 L13.666,39.007 L41.888,24.351 L45.386,0.952 L1.306,23.714 Z" id="Shape"></path>
                </g>
                <g id="top" transform="translate(2.000000, 0.000000)" fill="#1B98E0">
                    <path d="M63.813,0.211 L60.194,24.418 L60.011,24.391 L60.095,24.555 L0.172,55.306 L3.681,31.186 L3.813,31.205 L3.822,31.145 L3.777,31.047 L3.841,31.014 L3.866,30.846 L3.863,30.846 L55.06,4.706 L63.813,0.211 Z" id="Top"></path>
                </g>
            </g>
        </g>
    </g>
</svg>