<?xml version="1.0" encoding="UTF-8"?>
<svg width="82px" height="124px" viewBox="0 0 82 124" version="1.1" xmlns="http://www.w3.org/2000/svg" xmlns:xlink="http://www.w3.org/1999/xlink">
    <!-- Generator: Sketch 61.2 (89653) - https://sketch.com -->
    <title>logo</title>
    <desc>Created with Sketch.</desc>
    <g id="Page-1" stroke="none" stroke-width="1" fill="none" fill-rule="evenodd">
        <g id="logo" fill-rule="nonzero">
            <g>
                <polygon id="Path" fill="#006494" points="1.86 68.55375 8.83375 76.7375 23.07 69.40125 22.30875 74.48125 11.6 79.98125 19.615 89.38375 39.52625 79.105 6.28375 39.30125 1.6825 68.705 1.6825 68.705"></polygon>
                <g id="Group" transform="translate(0.250000, 68.750000)" fill="#006494">
                    <polygon id="Path" points="17.765 3.5775 15.1425 0.4675 0.79 8.055 0.09875 12.6825"></polygon>
                    <path d="M17.075,36.75625 L37.07625,26.48375 L20.5175,6.8425 L0.23625,17.2625 C5.87125,23.74125 11.48375,30.24 17.075,36.75625 Z" id="Path"></path>
                </g>
                <polygon id="middle" fill="#1B98E0" points="0.83875 76.74875 0.275 81.14625 23.07 69.40125 22.30875 74.48125 0.09 85.8925 11.23 98.45125 70.51125 67.91625 74.705 38.77125"></polygon>
                <g id="Bottom" transform="translate(14.750000, 74.500000)" fill="#1B98E0">
                    <path d="M52.57375,30.5925 L17.02,49.05375 L1.26875,29.56375 L57.03125,0.77 C55.545,10.71125 54.05875,20.65125 52.57375,30.5925 Z" id="Path"></path>
                    <path d="M16.9575,49.35125 L0.90625,29.48875 C19.71375,19.77625 38.5225,10.065 57.33125,0.3525 L52.7925,30.71125 C41.07,36.83 28.70125,43.2625 16.9575,49.35125 Z M1.6325,29.6425 L17.0825,48.75875 L52.36,30.43875 L56.7325,1.19 L1.6325,29.6425 Z" id="Shape"></path>
                </g>
                <g id="top" transform="translate(1.500000, 0.000000)" fill="#1B98E0">
                    <polygon id="Top" points="79.76625 0.26375 75.2425 30.5225 75.01375 30.48875 75.11875 30.69375 0.215 69.1325 4.60125 38.9825 4.76625 39.00625 4.7775 38.93125 4.72125 38.80875 4.80125 38.7675 4.8325 38.5575 4.82875 38.5575 68.825 5.8825"></polygon>
                </g>
            </g>
        </g>
    </g>
</svg>