<?xml version="1.0" encoding="UTF-8"?>
<svg width="507px" height="124px" viewBox="0 0 507 124" version="1.1" xmlns="http://www.w3.org/2000/svg" xmlns:xlink="http://www.w3.org/1999/xlink">
    <!-- Generator: Sketch 61.2 (89653) - https://sketch.com -->
    <title>logo</title>
    <desc>Created with Sketch.</desc>
    <g id="Page-1" stroke="none" stroke-width="1" fill="none" fill-rule="evenodd">
        <g id="logo" fill-rule="nonzero">
            <g>
                <polygon id="Path" fill="#006494" points="1.86 68.55375 8.83375 76.7375 23.07 69.40125 22.30875 74.48125 11.6 79.98125 19.615 89.38375 39.52625 79.105 6.28375 39.30125 1.6825 68.705 1.6825 68.705"></polygon>
                <g id="Group" transform="translate(0.250000, 68.750000)" fill="#006494">
                    <polygon id="Path" points="17.765 3.5775 15.1425 0.4675 0.79 8.055 0.09875 12.6825"></polygon>
                    <path d="M17.075,36.75625 L37.07625,26.48375 L20.5175,6.8425 L0.23625,17.2625 C5.87125,23.74125 11.48375,30.24 17.075,36.75625 Z" id="Path"></path>
                </g>
                <polygon id="middle" fill="#1B98E0" points="0.83875 76.74875 0.275 81.14625 23.07 69.40125 22.30875 74.48125 0.09 85.8925 11.23 98.45125 70.51125 67.91625 74.705 38.77125"></polygon>
                <g id="Bottom" transform="translate(14.750000, 74.500000)" fill="#1B98E0">
                    <path d="M52.57375,30.5925 L17.02,49.05375 L1.26875,29.56375 L57.03125,0.77 C55.545,10.71125 54.05875,20.65125 52.57375,30.5925 Z" id="Path"></path>
                    <path d="M16.9575,49.35125 L0.90625,29.48875 C19.71375,19.77625 38.5225,10.065 57.33125,0.3525 L52.7925,30.71125 C41.07,36.83 28.70125,43.2625 16.9575,49.35125 Z M1.6325,29.6425 L17.0825,48.75875 L52.36,30.43875 L56.7325,1.19 L1.6325,29.6425 Z" id="Shape"></path>
                </g>
                <g id="top" transform="translate(1.500000, 0.000000)" fill="#1B98E0">
                    <polygon id="Top" points="79.76625 0.26375 75.2425 30.5225 75.01375 30.48875 75.11875 30.69375 0.215 69.1325 4.60125 38.9825 4.76625 39.00625 4.7775 38.93125 4.72125 38.80875 4.80125 38.7675 4.8325 38.5575 4.82875 38.5575 68.825 5.8825"></polygon>
                </g>
            </g>
            <g id="Group-3" transform="translate(94.000000, 20.000000)" fill="#FFFFFF">
                <g id="Group">
                    <path d="M0,1.42108547e-14 L15.9768,1.42108547e-14 L15.9768,80.20944 L0,80.20944 L0,1.42108547e-14 Z M32.0616,80.20944 L32.0616,0.05328 L37.40544,0.05328 L87.63696,50.2848 L87.63696,0.05328 L103.66848,0.05328 L103.66848,80.20944 L97.7904,80.20944 L48.09312,30.5136 L48.09312,80.20944 L32.0616,80.20944 L32.0616,80.20944 Z M120.23424,80.20944 L120.23424,0.05328 L176.61024,0.05328 L176.61024,15.01632 L136.26576,15.01632 L136.26576,32.11632 L166.03056,32.11632 L166.03056,47.02464 L136.26576,47.02464 L136.26576,80.20944 L120.23424,80.20944 L120.23424,80.20944 Z M191.36736,68.6952 C183.708,61.01712 179.87904,51.49728 179.87904,40.13136 C179.87904,28.73232 183.708,19.2024 191.36736,11.54304 C199.02816,3.88368 208.55664,0.05328 219.95712,0.05328 C231.3576,0.05328 240.88608,3.88368 248.54544,11.54304 C256.20624,19.2024 260.0352,28.73232 260.0352,40.13136 C260.0352,51.53328 256.20624,61.06176 248.54544,68.72112 C240.88608,76.38192 231.3576,80.20944 219.95712,80.20944 C208.55664,80.20944 199.02816,76.37328 191.36736,68.6952 L191.36736,68.6952 Z M220.0104,65.24784 C227.09952,65.24784 232.87104,62.84304 237.32352,58.03344 C241.77744,53.22384 244.00368,47.25792 244.00368,40.13136 C244.00368,33.00768 241.77744,27.03888 237.32352,22.23072 C232.87104,17.42112 227.06352,15.01632 219.90384,15.01632 C212.81472,15.01632 207.0432,17.42112 202.58928,22.23072 C198.13536,27.03888 195.91056,33.00768 195.91056,40.13136 C195.91056,47.25792 198.13536,53.22384 202.58928,58.03344 C207.0432,62.84304 212.84928,65.24784 220.0104,65.24784 L220.0104,65.24784 Z M271.73808,80.20944 L271.73808,0.10656 L330.62544,0.05328 L330.62544,15.01632 L287.7696,15.01632 L287.7696,32.11632 L319.88448,32.11632 L319.88448,47.02464 L287.7696,47.02464 L287.7696,65.24784 L330.51888,65.24784 L330.51888,80.20944 L271.73808,80.20944 Z M412.1712,0.05328 L412.1712,15.01632 L385.452,15.01632 L385.452,80.20944 L369.42192,80.20944 L369.42192,15.01632 L342.70272,15.01632 L342.70272,0.05328 L412.1712,0.05328 Z" id="Shape"></path>
                </g>
            </g>
        </g>
    </g>
</svg>